<?xml version="1.0" standalone="no"?>
<!DOCTYPE svg PUBLIC "-//W3C//DTD SVG 20010904//EN"
 "http://www.w3.org/TR/2001/REC-SVG-20010904/DTD/svg10.dtd">
<svg version="1.0" xmlns="http://www.w3.org/2000/svg"
 width="5000.000000pt" height="5000.000000pt" viewBox="0 0 5000.000000 5000.000000"
 preserveAspectRatio="xMidYMid meet">

<g transform="translate(0.000000,5000.000000) scale(0.100000,-0.100000)"
fill="#23559B" stroke="none">
<path d="M24752 34675 c-29 -8 -70 -28 -90 -44 -23 -19 -68 -38 -117 -51 -49
-14 -90 -32 -106 -47 -25 -23 -131 -63 -169 -63 -10 0 -37 -16 -60 -35 -23
-19 -60 -39 -83 -45 -95 -23 -118 -32 -134 -49 -26 -26 -56 -40 -134 -62 -37
-10 -88 -32 -111 -49 -24 -16 -79 -40 -123 -53 -48 -14 -91 -33 -108 -49 -25
-24 -43 -30 -153 -58 -22 -5 -51 -21 -64 -35 -21 -23 -53 -36 -157 -64 -23 -6
-56 -23 -74 -38 -18 -15 -66 -37 -112 -50 -45 -13 -91 -30 -102 -38 -11 -8
-30 -22 -42 -31 -12 -9 -57 -25 -100 -36 -46 -11 -88 -29 -103 -43 -34 -31
-56 -41 -123 -55 -31 -6 -70 -22 -85 -34 -39 -33 -66 -46 -144 -67 -38 -11
-86 -33 -106 -49 -23 -17 -69 -37 -119 -51 -53 -14 -94 -32 -113 -49 -28 -25
-123 -60 -162 -60 -9 0 -34 -15 -56 -33 -22 -19 -62 -40 -89 -46 -94 -25 -112
-32 -149 -62 -20 -16 -55 -34 -78 -40 -83 -21 -135 -40 -147 -55 -19 -23 -57
-40 -136 -59 -41 -10 -79 -25 -90 -37 -25 -28 -48 -39 -124 -58 -40 -11 -83
-30 -106 -48 -22 -18 -65 -37 -103 -47 -72 -19 -93 -28 -131 -60 -15 -12 -65
-32 -112 -44 -57 -16 -94 -32 -108 -47 -22 -23 -130 -64 -170 -64 -10 0 -33
-13 -51 -29 -44 -37 -63 -46 -128 -60 -31 -7 -77 -27 -105 -46 -28 -19 -86
-45 -131 -58 -47 -13 -95 -35 -113 -50 -18 -15 -51 -31 -74 -37 -23 -6 -58
-15 -78 -21 -19 -5 -50 -22 -68 -38 -30 -27 -47 -33 -157 -61 -22 -5 -51 -21
-64 -35 -21 -23 -54 -36 -156 -64 -23 -6 -58 -24 -78 -40 -22 -18 -68 -37
-118 -51 -54 -15 -94 -32 -115 -51 -31 -27 -57 -37 -152 -58 -24 -5 -55 -20
-70 -34 -35 -33 -56 -43 -124 -57 -31 -6 -70 -22 -85 -34 -38 -33 -77 -50
-155 -71 -42 -11 -80 -28 -99 -45 -18 -17 -55 -34 -96 -45 -84 -21 -122 -35
-122 -45 0 -16 -53 -41 -125 -59 -50 -13 -86 -29 -108 -48 -19 -16 -56 -35
-83 -42 -95 -25 -113 -32 -150 -62 -20 -16 -53 -33 -73 -38 -20 -5 -56 -15
-81 -21 -24 -7 -59 -25 -77 -41 -18 -15 -50 -33 -70 -38 -21 -5 -57 -15 -80
-21 -24 -6 -51 -19 -60 -29 -26 -27 -71 -47 -135 -60 -35 -8 -72 -24 -100 -45
-27 -22 -71 -42 -121 -55 -47 -13 -94 -33 -115 -50 -22 -17 -70 -38 -117 -51
-51 -14 -92 -33 -113 -51 -18 -16 -35 -29 -38 -29 -2 0 -39 -9 -81 -21 -49
-13 -88 -30 -110 -49 -18 -16 -52 -34 -75 -40 -98 -24 -117 -31 -153 -60 -21
-16 -56 -35 -79 -41 -103 -27 -123 -34 -153 -60 -18 -16 -51 -33 -73 -39 -22
-5 -57 -14 -78 -20 -21 -5 -53 -23 -71 -39 -17 -16 -53 -34 -79 -40 -98 -25
-122 -35 -144 -58 -12 -13 -47 -31 -78 -39 -104 -29 -119 -35 -154 -63 -22
-18 -69 -38 -118 -51 -53 -14 -94 -32 -114 -50 -20 -17 -61 -35 -115 -49 -48
-13 -95 -33 -109 -46 -34 -31 -56 -41 -120 -54 -31 -7 -77 -27 -105 -46 -27
-19 -86 -45 -130 -58 -49 -14 -91 -33 -108 -49 -19 -18 -53 -32 -104 -44 -52
-13 -88 -28 -116 -50 -22 -18 -61 -38 -86 -44 -96 -24 -121 -34 -142 -56 -20
-22 -54 -35 -155 -63 -23 -6 -58 -24 -79 -41 -21 -16 -55 -34 -76 -40 -22 -5
-58 -15 -81 -21 -24 -6 -57 -24 -75 -40 -18 -15 -50 -33 -70 -38 -21 -5 -57
-15 -80 -21 -24 -6 -51 -19 -60 -29 -24 -24 -70 -47 -113 -55 -54 -11 -92 -27
-130 -57 -20 -16 -69 -36 -117 -49 -53 -14 -92 -31 -113 -50 -28 -25 -122 -60
-162 -60 -9 0 -35 -16 -58 -35 -23 -19 -44 -35 -46 -35 -2 0 -39 -9 -80 -20
-63 -17 -87 -30 -140 -75 -73 -62 -73 -63 34 -91 31 -8 74 -28 95 -45 38 -30
58 -39 134 -59 23 -6 60 -26 82 -44 26 -22 60 -38 92 -45 60 -13 85 -25 120
-58 15 -14 58 -32 103 -45 52 -14 86 -30 105 -49 18 -18 51 -34 92 -44 74 -19
95 -29 129 -60 14 -13 57 -33 96 -44 39 -12 88 -34 108 -50 37 -30 60 -39 144
-61 23 -6 57 -24 75 -39 18 -16 57 -37 87 -46 97 -30 105 -35 176 -106 l69
-70 -35 -29 c-19 -16 -55 -34 -78 -41 -24 -7 -60 -27 -79 -45 -23 -22 -59 -41
-99 -53 -42 -12 -74 -30 -92 -49 -19 -20 -51 -37 -96 -51 -43 -13 -78 -31 -94
-49 -17 -18 -54 -37 -97 -52 -42 -13 -80 -33 -96 -50 -15 -16 -53 -36 -95 -50
-40 -13 -77 -32 -89 -46 -12 -13 -56 -38 -100 -55 -43 -16 -85 -38 -92 -49 -7
-10 -46 -31 -85 -46 -40 -15 -90 -42 -112 -60 -21 -18 -52 -36 -70 -40 -42 -9
-85 -31 -122 -64 -18 -15 -54 -33 -81 -39 -30 -7 -64 -25 -87 -46 -22 -19 -63
-44 -92 -56 -30 -13 -54 -26 -54 -30 0 -4 35 -16 78 -28 42 -11 88 -30 102
-41 37 -30 78 -47 159 -66 49 -11 83 -25 105 -44 22 -20 58 -35 116 -49 46
-12 93 -28 104 -36 12 -8 30 -22 41 -30 11 -8 54 -23 96 -33 81 -21 113 -34
145 -63 11 -11 60 -29 109 -41 61 -15 98 -30 119 -49 22 -19 59 -34 116 -49
51 -12 103 -33 129 -51 26 -18 76 -38 125 -50 54 -14 94 -30 119 -51 27 -21
64 -36 122 -50 55 -13 96 -29 119 -47 19 -15 62 -38 96 -50 36 -13 67 -32 76
-47 15 -22 15 -26 0 -49 -9 -14 -35 -34 -59 -46 -23 -12 -57 -34 -74 -50 -18
-15 -52 -33 -75 -40 -57 -15 -118 -40 -118 -49 0 -12 -74 -48 -123 -61 -27 -6
-66 -27 -88 -45 -22 -19 -59 -39 -82 -45 -56 -15 -117 -40 -117 -49 0 -12 -74
-48 -123 -61 -27 -6 -66 -27 -88 -45 -25 -20 -68 -42 -110 -54 -38 -12 -84
-34 -102 -49 -17 -15 -63 -38 -102 -50 -38 -13 -83 -35 -101 -50 -17 -16 -64
-38 -103 -50 -39 -12 -86 -34 -103 -50 -18 -15 -68 -40 -111 -54 -44 -15 -86
-35 -96 -48 -10 -13 -52 -33 -102 -49 l-84 -27 4 -49 c1 -27 8 -52 15 -57 6
-4 43 -16 81 -28 39 -11 87 -34 108 -50 38 -31 58 -39 135 -59 23 -6 57 -23
75 -39 34 -29 62 -41 140 -62 27 -6 67 -27 89 -46 22 -18 45 -33 52 -33 35 0
121 -35 151 -61 22 -20 60 -37 110 -51 53 -14 84 -29 102 -49 15 -15 38 -31
52 -34 90 -22 136 -40 164 -65 19 -16 64 -37 107 -50 44 -13 88 -34 108 -51
17 -16 58 -36 90 -44 106 -30 134 -48 212 -138 l33 -38 -23 -24 c-13 -14 -48
-34 -78 -45 -30 -12 -66 -33 -81 -49 -15 -16 -53 -37 -92 -50 -39 -13 -77 -33
-94 -51 -17 -18 -54 -38 -94 -51 -41 -14 -78 -34 -97 -53 -20 -20 -53 -39 -92
-50 -37 -12 -72 -30 -89 -48 -18 -18 -52 -36 -98 -49 -45 -14 -83 -33 -106
-54 -39 -35 -42 -36 -127 -55 -37 -9 -58 -20 -72 -40 -22 -31 -50 -44 -129
-60 -42 -8 -61 -18 -85 -46 -26 -29 -42 -37 -106 -50 -58 -11 -79 -21 -94 -40
-10 -13 -37 -34 -60 -46 -22 -11 -57 -37 -76 -57 -61 -62 -159 -135 -203 -152
-44 -18 -56 -41 -22 -47 63 -11 130 -37 158 -61 20 -18 62 -36 112 -49 44 -12
98 -34 120 -50 46 -32 80 -46 150 -62 30 -6 69 -25 94 -45 24 -19 52 -35 61
-35 39 0 148 -41 169 -64 15 -16 47 -30 94 -42 80 -19 110 -32 146 -63 13 -12
43 -26 65 -32 79 -21 124 -40 141 -59 22 -24 18 -29 -77 -111 -61 -52 -73 -59
-159 -79 -68 -16 -102 -29 -125 -50 -21 -18 -54 -33 -91 -40 -93 -20 -119 -29
-157 -59 -24 -20 -66 -36 -128 -51 -65 -16 -103 -31 -125 -51 -22 -19 -56 -33
-110 -44 -51 -11 -95 -29 -128 -51 -32 -21 -82 -41 -138 -55 -56 -14 -100 -31
-122 -49 -22 -18 -65 -35 -120 -48 -52 -13 -98 -31 -114 -45 -34 -29 -64 -40
-159 -62 -41 -10 -81 -25 -90 -35 -24 -25 -72 -47 -117 -55 -64 -11 -109 -26
-130 -45 -32 -29 -75 -46 -155 -64 -41 -9 -84 -25 -95 -36 -11 -11 -53 -35
-93 -54 l-71 -35 21 -48 c11 -26 24 -52 28 -57 4 -4 38 -14 74 -22 74 -15 119
-34 156 -64 14 -11 59 -28 100 -38 83 -21 111 -33 152 -67 15 -12 44 -26 65
-29 78 -14 111 -27 147 -55 22 -18 63 -35 109 -46 79 -20 121 -38 152 -66 12
-10 55 -27 96 -37 82 -21 113 -34 145 -64 12 -10 58 -28 103 -38 53 -13 98
-31 131 -54 32 -22 75 -39 125 -51 53 -12 86 -25 109 -45 23 -20 59 -36 121
-51 60 -15 98 -31 120 -50 21 -19 59 -35 118 -50 58 -14 100 -31 124 -50 20
-16 52 -33 72 -38 20 -6 58 -15 85 -22 27 -7 64 -25 81 -40 21 -19 59 -35 119
-50 52 -13 99 -32 116 -46 31 -25 82 -46 145 -57 44 -9 115 -42 115 -55 0 -12
39 -27 106 -41 58 -12 134 -46 134 -61 0 -8 74 -34 130 -45 42 -8 88 -30 115
-55 12 -10 59 -28 105 -40 56 -13 97 -30 121 -49 23 -18 66 -37 119 -50 50
-13 100 -34 130 -54 32 -22 75 -40 125 -51 55 -12 86 -25 110 -47 25 -21 57
-35 119 -50 57 -13 97 -29 121 -48 22 -18 68 -37 121 -51 53 -14 99 -33 121
-51 20 -15 54 -33 77 -38 112 -28 132 -36 161 -61 21 -18 59 -35 115 -49 47
-12 103 -33 125 -48 53 -36 81 -47 134 -56 44 -7 121 -43 121 -57 0 -9 44 -25
110 -40 62 -13 105 -33 135 -60 12 -10 55 -27 96 -37 82 -21 113 -34 146 -64
12 -11 59 -29 105 -40 56 -13 95 -28 119 -48 24 -19 66 -36 119 -50 50 -13
100 -34 130 -54 32 -22 75 -40 125 -51 53 -12 86 -25 109 -45 23 -20 59 -36
120 -51 49 -12 100 -32 114 -44 39 -32 58 -40 139 -60 46 -11 87 -28 109 -46
20 -16 55 -33 78 -39 96 -24 144 -41 161 -60 17 -19 77 -42 145 -56 39 -7 92
-34 130 -64 14 -11 53 -25 86 -31 58 -10 74 -18 137 -62 15 -11 57 -26 94 -34
74 -17 117 -35 148 -64 12 -10 55 -27 96 -37 82 -21 113 -34 145 -64 12 -10
59 -28 105 -39 57 -13 96 -29 120 -49 25 -20 66 -37 124 -51 61 -16 98 -31
121 -51 23 -20 58 -35 120 -50 60 -15 97 -30 119 -49 21 -19 59 -35 118 -50
58 -14 100 -31 124 -50 20 -16 52 -33 72 -38 20 -6 58 -15 85 -22 27 -7 63
-25 81 -40 21 -19 58 -34 115 -48 46 -12 93 -28 104 -36 12 -8 30 -22 41 -30
11 -8 54 -23 96 -33 82 -21 110 -33 151 -67 15 -12 44 -26 65 -29 78 -14 111
-27 147 -55 22 -18 63 -35 109 -46 79 -20 121 -38 152 -66 12 -10 55 -27 96
-37 82 -21 113 -34 145 -64 12 -10 59 -28 105 -39 58 -14 96 -29 121 -50 26
-21 65 -37 124 -51 60 -15 97 -30 119 -49 22 -19 59 -35 120 -50 60 -15 98
-31 120 -50 21 -19 59 -35 118 -50 58 -14 100 -31 124 -50 20 -16 52 -33 72
-38 20 -6 58 -15 85 -22 27 -7 64 -25 81 -40 21 -19 59 -35 119 -50 52 -13 99
-32 116 -46 31 -25 82 -46 145 -57 40 -8 115 -44 115 -56 0 -11 42 -27 106
-40 58 -12 134 -46 134 -61 0 -8 74 -34 130 -45 42 -8 88 -30 115 -55 12 -10
59 -28 105 -40 56 -13 97 -30 121 -49 23 -18 66 -37 119 -50 50 -13 100 -34
130 -54 32 -22 75 -40 125 -51 55 -12 86 -25 110 -47 25 -21 57 -35 119 -50
57 -13 97 -29 121 -48 22 -18 68 -37 121 -51 53 -14 99 -33 121 -51 20 -15 54
-33 77 -38 112 -28 132 -36 161 -61 21 -18 59 -35 115 -49 103 -26 160 -60
160 -95 0 -24 3 -25 55 -25 54 0 55 1 55 28 0 47 22 60 151 96 31 9 72 29 92
45 23 18 68 37 119 51 52 14 93 31 109 47 25 23 131 63 169 63 10 0 36 15 58
33 22 19 62 40 89 46 94 25 112 32 149 62 20 16 55 34 78 40 86 22 134 40 151
58 20 23 49 35 135 56 40 10 77 28 97 45 18 16 52 34 75 40 96 23 119 32 135
49 26 26 56 40 134 62 37 10 88 32 111 49 24 17 78 40 123 51 46 13 91 31 105
45 30 28 80 49 137 59 25 4 60 20 85 40 25 20 64 39 93 45 73 17 106 30 145
62 19 15 62 34 95 43 89 23 125 36 125 45 0 16 53 42 126 60 51 13 87 29 110
50 19 16 37 30 40 30 2 0 39 9 81 21 49 13 88 30 110 49 18 16 52 34 75 40 98
24 117 31 152 59 22 18 68 37 118 51 54 15 94 32 115 51 18 15 52 33 75 39 24
6 61 16 83 22 22 5 51 20 65 33 34 31 56 41 120 54 31 7 77 27 105 46 28 19
86 45 131 58 47 13 95 35 113 50 18 15 49 31 69 36 20 5 56 15 79 21 24 6 51
19 60 29 26 27 71 47 135 60 35 8 72 24 100 45 27 22 71 42 121 55 48 13 93
33 115 51 22 17 67 37 112 48 90 24 110 32 110 42 0 16 53 41 125 59 50 13 86
29 108 48 19 16 56 35 83 42 94 25 115 33 142 55 39 33 58 41 139 60 47 12 79
26 94 42 22 23 130 64 169 64 10 0 37 16 60 35 23 19 60 39 83 45 97 24 116
31 152 60 21 16 56 35 79 41 86 22 134 40 151 58 20 23 49 35 135 56 40 10 77
28 97 45 18 16 52 34 75 40 24 6 59 16 79 21 20 5 42 16 50 25 19 23 64 44
140 65 38 10 88 32 111 49 24 16 80 40 126 53 45 14 88 31 95 39 24 28 45 38
121 57 53 13 87 29 111 50 20 17 38 31 41 31 34 0 164 47 192 70 23 18 68 37
117 50 50 13 90 31 106 46 25 24 131 64 169 64 10 0 36 15 58 33 22 19 62 40
89 46 94 25 112 32 149 62 20 16 55 34 78 39 95 24 115 31 151 60 21 16 55 34
76 40 22 5 58 15 81 21 24 6 57 24 75 40 18 15 50 33 70 38 21 5 57 15 80 21
24 6 51 19 60 29 26 27 70 47 133 60 31 7 77 27 105 46 28 19 86 45 131 58 47
13 95 35 113 50 18 15 50 31 71 37 22 5 57 14 78 20 21 5 53 23 71 39 30 27
68 41 148 56 17 4 51 21 75 40 27 21 71 41 121 54 47 13 94 33 115 50 22 18
69 38 117 51 47 13 90 32 105 46 28 26 83 48 148 59 25 4 58 20 81 39 22 18
61 39 88 45 94 25 112 32 149 62 20 16 55 34 78 40 22 6 59 15 81 21 22 5 54
23 72 39 31 27 57 37 152 58 24 5 55 20 70 34 35 33 56 42 121 56 31 7 77 27
105 46 28 19 86 45 133 58 45 13 93 33 105 44 31 29 52 38 135 58 41 10 76 24
79 32 8 20 71 50 140 66 36 8 76 26 99 44 24 20 69 39 117 52 48 13 93 33 115
51 23 17 70 38 122 52 53 15 95 34 113 50 25 24 43 30 153 58 22 5 51 21 64
35 21 23 54 36 156 64 23 6 58 24 79 41 21 16 55 34 76 40 22 5 58 15 81 21
24 6 57 23 74 39 19 17 57 34 100 44 38 10 79 23 90 29 41 23 133 101 128 109
-3 4 -39 18 -80 30 -52 15 -85 31 -110 55 -20 18 -43 33 -53 33 -41 0 -123 33
-161 65 -23 19 -47 35 -54 35 -34 0 -120 34 -149 59 -19 17 -61 37 -106 49
-75 21 -121 45 -121 62 0 5 -38 21 -84 35 -48 15 -100 38 -121 55 -21 17 -70
39 -109 51 -39 11 -88 34 -109 50 -38 30 -58 39 -134 59 -23 6 -60 26 -82 44
-26 22 -60 38 -92 45 -60 13 -85 25 -120 58 -15 14 -58 32 -103 45 -52 14 -86
30 -105 49 -18 18 -51 34 -92 44 -74 20 -118 40 -126 61 -3 7 -44 26 -91 40
-67 21 -98 37 -140 73 -67 57 -89 95 -70 119 22 28 41 40 87 53 24 7 64 28 89
47 25 19 72 43 106 54 33 11 75 33 92 48 18 15 63 38 100 50 38 12 83 35 101
50 18 16 55 36 82 44 59 17 87 31 124 62 15 13 50 30 77 38 60 18 88 32 120
61 14 12 53 32 88 43 35 12 80 34 100 50 20 16 55 35 77 41 63 19 95 33 95 40
0 14 -135 114 -164 122 -17 4 -50 13 -73 19 -23 6 -60 26 -83 45 -23 19 -49
35 -57 35 -37 0 -127 34 -156 60 -20 17 -61 36 -112 49 -46 13 -95 34 -115 50
-38 29 -67 42 -143 62 -27 6 -66 27 -88 45 -26 22 -58 37 -97 44 -67 14 -86
23 -129 60 -18 16 -50 31 -75 35 -58 10 -108 31 -138 60 -15 13 -58 32 -105
45 -46 12 -95 34 -115 49 -34 27 -63 39 -148 61 -45 12 -102 56 -154 122 l-31
39 24 25 c13 14 51 33 90 44 36 11 83 33 104 50 21 16 73 40 119 54 50 16 91
35 105 50 15 16 51 32 104 46 58 15 90 30 110 50 18 19 52 34 104 49 49 13 86
30 104 47 18 17 58 35 110 50 52 15 94 35 115 54 19 16 53 34 76 40 84 22 107
31 144 61 20 16 55 34 78 40 83 21 108 32 140 59 19 18 62 37 111 51 52 14 91
32 110 50 20 19 57 35 113 50 l82 22 0 53 c0 61 -1 62 -102 88 -40 11 -79 29
-97 45 -19 17 -62 37 -109 50 -42 13 -93 35 -113 51 -19 15 -69 38 -110 50
-42 12 -91 35 -113 53 -23 18 -68 38 -108 49 -69 18 -118 43 -118 58 0 9 -55
30 -128 49 -23 7 -57 25 -75 41 -20 17 -58 35 -97 45 -75 19 -96 29 -130 60
-14 13 -58 32 -99 44 -40 11 -84 28 -98 38 -62 44 -81 53 -132 65 -29 6 -68
22 -85 35 -17 13 -59 37 -93 53 -77 37 -99 66 -81 105 6 14 30 36 52 47 23 11
53 33 67 48 16 17 50 35 85 46 36 11 73 31 94 51 21 19 62 42 100 54 36 12 79
34 95 50 17 15 60 39 96 54 37 14 77 37 89 50 13 13 51 34 85 45 36 12 74 33
91 51 17 18 50 36 82 45 29 9 68 28 85 44 39 33 81 55 125 65 18 4 48 22 67
40 23 24 55 41 104 55 44 14 75 29 82 41 11 21 63 50 124 69 22 7 54 25 70 40
17 16 59 40 95 54 35 15 76 37 90 50 14 14 51 34 83 46 31 12 57 26 57 31 0 5
-21 23 -47 39 -27 16 -58 37 -71 48 -12 11 -61 29 -108 41 -55 14 -103 34
-134 55 -32 22 -75 40 -125 51 -55 12 -86 25 -110 47 -25 21 -57 35 -119 50
-57 13 -97 29 -121 48 -21 17 -68 37 -117 50 -79 21 -138 47 -138 61 0 10 -43
26 -106 39 -66 14 -87 23 -126 55 -15 12 -60 30 -100 40 -80 20 -122 38 -153
66 -12 10 -59 28 -105 40 -56 13 -97 30 -122 50 -20 16 -58 36 -85 45 -62 21
-103 50 -103 74 0 21 39 52 104 81 25 11 49 26 53 33 13 22 55 42 123 61 41
11 75 27 92 44 18 18 55 36 105 51 48 14 87 33 104 49 23 24 115 61 150 61 8
0 31 15 52 34 25 22 62 40 110 54 44 13 85 33 106 51 20 18 58 36 97 47 38 10
83 31 107 50 23 18 68 40 100 48 64 17 68 19 117 57 19 15 65 36 102 47 37 11
84 33 105 50 21 16 71 39 111 51 63 19 81 30 122 74 59 62 56 67 -55 92 -49
10 -86 26 -110 45 -39 31 -41 32 -125 50 -62 14 -105 34 -136 61 -11 11 -60
29 -109 41 -61 15 -98 30 -120 49 -22 19 -59 35 -120 50 -59 15 -98 31 -119
49 -20 17 -61 35 -116 49 -52 14 -104 36 -136 57 -32 21 -72 38 -109 45 -62
11 -135 43 -135 58 0 12 -21 20 -113 42 -48 12 -95 31 -127 53 -32 22 -75 39
-125 51 -55 12 -86 25 -111 47 -24 21 -54 35 -99 44 -73 15 -118 34 -155 64
-14 11 -59 28 -100 38 -82 21 -111 33 -151 67 -15 12 -55 28 -90 34 -69 14
-114 34 -141 61 -9 10 -57 27 -107 40 -62 15 -103 32 -127 51 -20 16 -53 33
-73 38 -20 6 -58 15 -85 22 -27 7 -63 25 -81 40 -21 19 -59 34 -115 49 -51 12
-103 33 -129 51 -24 17 -76 38 -115 48 -79 20 -110 34 -142 63 -12 10 -59 28
-105 39 -57 13 -96 29 -120 49 -25 20 -66 37 -123 51 -57 14 -99 32 -123 50
-19 16 -54 34 -77 39 -112 28 -132 35 -160 60 -20 17 -58 33 -106 45 -82 19
-124 37 -155 66 -12 10 -59 28 -105 40 -58 14 -97 30 -123 51 -27 21 -64 36
-122 50 -57 13 -96 29 -121 49 -20 16 -55 34 -78 40 -108 27 -144 40 -156 55
-21 24 -60 41 -127 54 -58 12 -75 19 -135 62 -13 10 -58 26 -99 36 -81 21
-113 34 -145 63 -11 11 -60 29 -109 41 -61 15 -98 30 -120 49 -21 19 -59 35
-118 50 -58 14 -100 31 -124 50 -20 16 -52 33 -72 38 -20 6 -58 15 -84 22 -26
6 -64 25 -83 40 -38 30 -40 31 -124 49 -62 14 -105 34 -136 61 -11 11 -60 29
-109 41 -61 15 -98 30 -120 49 -22 19 -59 35 -120 50 -59 15 -98 31 -119 49
-20 17 -61 35 -116 49 -52 14 -104 36 -136 57 -32 21 -72 38 -109 45 -62 11
-135 43 -135 58 0 12 -21 20 -113 42 -48 12 -95 31 -127 53 -32 22 -75 39
-125 51 -55 12 -86 25 -111 47 -24 21 -54 35 -99 44 -73 15 -118 34 -155 64
-14 11 -59 28 -100 38 -82 21 -111 33 -151 67 -15 12 -55 28 -90 34 -69 14
-114 34 -141 61 -9 10 -58 28 -108 40 -52 13 -103 32 -118 45 -40 33 -62 43
-141 61 -49 11 -83 25 -105 44 -22 20 -59 35 -116 50 -51 12 -103 33 -129 51
-24 17 -76 38 -115 48 -79 20 -110 34 -142 63 -12 10 -59 28 -105 39 -57 13
-96 29 -120 49 -25 20 -66 37 -123 51 -57 14 -99 32 -123 50 -19 16 -54 34
-77 39 -112 28 -132 35 -160 60 -20 17 -58 33 -106 45 -82 19 -124 37 -155 66
-12 10 -59 28 -105 40 -58 14 -97 30 -123 51 -27 21 -64 36 -122 50 -57 13
-96 29 -121 49 -20 16 -55 34 -78 40 -108 27 -144 40 -156 55 -21 24 -60 41
-127 54 -58 12 -75 19 -135 62 -13 10 -58 26 -99 36 -81 21 -113 34 -145 63
-11 11 -60 29 -109 41 -61 15 -98 30 -120 49 -21 19 -59 35 -118 50 -58 14
-100 31 -124 50 -20 16 -52 33 -72 38 -20 6 -58 15 -84 22 -26 6 -64 25 -83
40 -38 30 -40 31 -124 49 -61 14 -105 33 -135 60 -49 42 -201 61 -293 35z
m343 -1006 c19 -17 54 -35 78 -41 93 -20 119 -30 150 -57 20 -18 61 -36 112
-49 47 -13 100 -36 130 -56 28 -20 74 -40 105 -47 63 -13 107 -33 133 -60 9
-10 34 -23 55 -28 20 -5 56 -15 80 -21 23 -6 57 -24 75 -40 23 -19 59 -35 116
-50 51 -13 101 -34 131 -54 29 -20 78 -41 120 -51 49 -12 83 -28 110 -50 24
-20 57 -36 82 -40 66 -11 120 -33 148 -60 16 -15 56 -31 108 -45 52 -13 102
-33 132 -54 29 -20 78 -41 120 -51 49 -12 83 -28 110 -50 24 -20 57 -36 82
-40 66 -12 120 -33 149 -61 17 -16 52 -31 102 -43 42 -10 88 -27 103 -37 64
-46 82 -54 134 -65 61 -13 93 -27 129 -58 23 -20 44 -28 139 -51 23 -6 58 -25
77 -41 19 -17 54 -35 78 -41 91 -20 116 -29 151 -57 22 -18 68 -37 118 -51 55
-14 98 -33 126 -55 24 -19 58 -36 75 -40 80 -15 118 -29 148 -56 18 -16 51
-34 73 -39 112 -28 132 -36 161 -61 21 -18 59 -35 115 -49 59 -15 98 -32 128
-55 24 -19 58 -36 75 -40 80 -15 118 -29 148 -56 18 -16 51 -34 73 -39 112
-28 132 -36 161 -61 19 -17 63 -36 117 -52 51 -14 100 -35 118 -50 29 -25 50
-33 148 -57 23 -6 58 -25 77 -41 19 -17 54 -35 78 -41 93 -20 119 -30 150 -57
20 -18 61 -36 112 -49 47 -13 100 -36 130 -56 28 -20 74 -40 105 -47 59 -12
130 -44 130 -58 0 -11 40 -27 122 -47 42 -10 78 -26 95 -42 18 -17 58 -34 113
-49 52 -14 104 -36 135 -57 28 -20 74 -40 105 -47 63 -13 107 -33 133 -60 9
-10 36 -23 60 -29 23 -6 59 -16 80 -21 20 -5 52 -23 70 -39 23 -19 59 -35 116
-50 51 -13 101 -34 131 -54 29 -20 78 -41 120 -51 49 -12 83 -28 110 -50 24
-20 57 -36 82 -40 66 -12 120 -33 149 -61 17 -16 52 -31 102 -43 42 -10 88
-27 103 -37 64 -46 82 -54 134 -65 61 -13 93 -27 129 -58 23 -20 44 -28 139
-51 23 -6 58 -24 77 -41 24 -21 57 -36 109 -48 41 -10 86 -26 98 -35 13 -9 32
-23 43 -31 12 -8 56 -23 98 -34 73 -18 115 -38 145 -68 12 -12 38 -21 130 -43
23 -6 58 -25 77 -41 19 -17 54 -35 78 -41 91 -20 116 -29 151 -57 22 -18 68
-37 118 -51 55 -14 98 -33 126 -55 24 -19 58 -36 75 -40 80 -15 118 -29 148
-56 18 -16 51 -34 73 -39 112 -28 132 -36 161 -61 19 -17 63 -36 117 -52 51
-14 100 -35 118 -50 29 -25 50 -33 148 -57 23 -6 58 -24 77 -41 24 -21 57 -36
109 -48 119 -28 150 -60 144 -144 -4 -52 -30 -71 -132 -97 -53 -13 -89 -29
-112 -49 -18 -17 -53 -35 -76 -41 -97 -24 -117 -31 -151 -59 -20 -15 -58 -34
-84 -41 -73 -18 -104 -32 -148 -62 -22 -15 -78 -39 -125 -52 -46 -13 -86 -29
-88 -35 -6 -18 -61 -43 -135 -62 -44 -11 -79 -28 -102 -48 -20 -17 -38 -31
-41 -31 -34 0 -164 -47 -192 -70 -22 -17 -64 -36 -103 -45 -63 -16 -80 -24
-142 -68 -15 -11 -61 -28 -104 -39 -46 -11 -88 -29 -103 -43 -34 -31 -56 -41
-122 -54 -37 -8 -71 -24 -99 -46 -29 -22 -67 -40 -111 -51 -38 -9 -83 -27
-101 -40 -54 -39 -79 -51 -154 -68 -47 -12 -79 -26 -94 -42 -22 -23 -130 -64
-169 -64 -10 0 -37 -15 -59 -34 -41 -35 -76 -49 -142 -60 -20 -4 -53 -19 -73
-35 -39 -31 -64 -42 -147 -65 -31 -9 -72 -29 -92 -45 -23 -18 -68 -37 -119
-51 -50 -13 -93 -31 -108 -46 -28 -26 -83 -48 -148 -59 -26 -4 -58 -20 -83
-41 -22 -18 -59 -38 -82 -44 -97 -24 -116 -31 -152 -60 -21 -16 -56 -35 -79
-41 -77 -19 -136 -41 -136 -49 0 -16 -53 -42 -126 -60 -46 -12 -89 -31 -112
-49 -20 -16 -57 -35 -82 -41 -99 -26 -120 -34 -141 -56 -20 -22 -54 -35 -155
-63 -23 -6 -58 -24 -78 -40 -22 -18 -68 -37 -118 -51 -54 -15 -94 -32 -115
-51 -18 -15 -51 -33 -73 -39 -22 -5 -57 -14 -78 -20 -22 -5 -47 -19 -58 -31
-26 -29 -40 -35 -128 -59 -47 -12 -92 -32 -114 -50 -22 -17 -64 -36 -103 -45
-63 -16 -80 -24 -142 -68 -15 -11 -61 -28 -104 -39 -46 -11 -88 -29 -103 -43
-34 -31 -56 -41 -122 -54 -35 -8 -72 -24 -100 -45 -27 -22 -71 -42 -120 -55
-42 -11 -96 -34 -120 -51 -24 -16 -77 -39 -118 -51 -45 -12 -86 -30 -101 -45
-25 -24 -131 -64 -170 -64 -10 0 -34 -14 -53 -30 -35 -31 -84 -52 -147 -64
-20 -3 -53 -19 -73 -35 -39 -32 -59 -40 -162 -70 -39 -11 -77 -28 -84 -37 -20
-23 -57 -39 -138 -59 -41 -10 -76 -23 -79 -31 -9 -23 -52 -44 -127 -63 -48
-12 -88 -30 -113 -49 -23 -19 -64 -37 -106 -48 -37 -9 -82 -27 -100 -40 -46
-34 -82 -50 -164 -74 -40 -11 -73 -24 -73 -29 0 -17 -52 -42 -126 -61 -46 -12
-89 -31 -112 -49 -20 -16 -57 -35 -82 -41 -99 -26 -120 -34 -141 -56 -20 -22
-54 -35 -155 -63 -23 -6 -58 -24 -78 -40 -22 -18 -68 -37 -118 -51 -54 -15
-94 -32 -115 -51 -18 -15 -51 -33 -73 -39 -22 -5 -58 -15 -80 -20 -22 -6 -48
-19 -57 -29 -24 -24 -70 -47 -113 -55 -54 -11 -92 -27 -130 -57 -20 -16 -69
-36 -117 -49 -53 -14 -92 -31 -113 -50 -28 -25 -122 -60 -162 -60 -9 0 -35
-16 -58 -35 -23 -19 -60 -39 -83 -45 -97 -24 -118 -32 -147 -56 -45 -39 -113
-56 -185 -48 -74 8 -95 16 -129 47 -16 15 -55 32 -94 42 -94 24 -118 34 -158
66 -20 16 -53 31 -73 35 -66 10 -125 34 -152 60 -18 17 -53 31 -113 45 -51 12
-98 30 -114 43 -39 33 -64 44 -124 57 -60 13 -101 32 -139 64 -15 12 -55 28
-90 34 -72 14 -106 30 -132 59 -11 12 -53 29 -108 42 -52 13 -102 32 -117 45
-40 33 -62 43 -141 61 -51 11 -83 25 -106 46 -25 21 -58 35 -119 49 -60 14
-93 28 -116 49 -20 18 -56 35 -98 45 -94 24 -118 34 -158 66 -20 16 -53 31
-73 35 -66 10 -125 34 -152 60 -18 17 -53 31 -113 45 -51 12 -98 30 -114 43
-39 33 -64 44 -124 57 -60 13 -101 32 -139 64 -15 12 -55 28 -90 34 -72 14
-106 30 -132 59 -11 12 -53 29 -108 42 -52 13 -102 32 -117 45 -40 33 -62 43
-141 61 -51 11 -83 25 -106 46 -25 21 -58 35 -119 49 -60 14 -93 28 -116 49
-20 18 -56 35 -98 45 -94 24 -118 34 -158 66 -20 16 -53 31 -73 35 -66 10
-125 34 -152 60 -18 17 -53 31 -112 45 -57 14 -98 30 -121 48 -33 26 -52 33
-162 61 -23 5 -58 24 -79 40 -21 16 -56 35 -79 40 -112 28 -132 36 -161 61
-21 18 -59 35 -115 49 -56 14 -98 31 -122 51 -23 18 -65 36 -111 48 -80 20
-113 35 -140 62 -9 10 -36 23 -60 29 -112 28 -130 35 -163 61 -21 17 -68 36
-121 50 -47 13 -98 33 -112 44 -39 33 -61 43 -139 60 -44 10 -80 25 -97 40
-35 33 -50 40 -124 55 -39 8 -83 26 -113 47 -47 31 -69 39 -164 63 -23 5 -58
24 -79 40 -21 16 -56 35 -79 40 -112 28 -132 36 -161 61 -21 18 -59 35 -115
49 -56 14 -98 31 -122 51 -23 18 -65 36 -111 48 -80 20 -113 35 -140 62 -9 10
-36 23 -60 29 -112 28 -130 35 -163 61 -21 17 -68 36 -121 50 -47 13 -98 33
-112 44 -39 33 -61 43 -139 60 -44 10 -80 25 -97 40 -35 33 -50 40 -124 55
-39 8 -83 26 -113 47 -47 31 -69 39 -164 63 -23 5 -58 24 -79 40 -21 16 -56
35 -79 40 -112 28 -132 36 -161 61 -21 18 -59 35 -115 49 -56 14 -98 31 -122
51 -23 18 -65 36 -111 48 -80 20 -113 35 -140 62 -9 10 -36 23 -60 29 -112 28
-130 35 -163 61 -21 17 -68 36 -121 50 -47 13 -98 33 -112 44 -39 33 -61 43
-139 60 -44 10 -80 25 -97 40 -35 33 -50 40 -124 55 -40 8 -83 26 -115 48 -30
20 -81 41 -125 52 -41 11 -87 28 -101 40 -14 11 -53 33 -86 49 -54 26 -94 61
-94 83 0 14 62 78 76 78 7 0 29 14 48 30 36 32 86 53 154 65 25 4 58 20 82 40
27 22 61 38 110 50 42 10 91 31 120 51 30 20 80 41 131 54 57 15 93 31 116 50
18 16 50 34 70 39 21 5 57 15 80 21 24 6 51 19 60 29 26 27 70 47 133 60 31 7
77 27 105 47 30 20 83 43 130 56 51 13 92 31 112 49 31 27 57 37 150 57 24 6
59 24 78 41 19 16 54 35 77 41 98 24 119 32 148 57 18 15 67 36 118 50 54 16
98 35 117 52 29 25 49 33 161 61 22 5 55 23 73 39 30 27 68 41 148 56 17 4 51
21 75 40 28 22 71 41 126 55 50 14 96 33 118 51 35 28 60 37 153 58 24 5 55
21 70 35 27 26 86 50 152 60 20 4 56 22 80 40 29 23 71 41 127 56 50 14 96 33
118 51 35 28 60 37 151 57 24 6 59 24 78 41 19 16 54 35 77 41 98 24 117 31
153 60 21 16 56 35 79 40 95 24 115 31 151 60 36 29 61 38 154 59 24 5 55 21
70 35 29 28 82 49 149 61 25 4 58 20 82 40 27 22 61 38 110 50 42 10 91 31
120 51 30 20 80 41 131 54 57 15 93 31 116 50 18 16 50 34 70 39 21 5 57 15
80 21 24 6 51 19 60 29 26 27 70 47 133 60 31 7 77 27 105 47 30 20 83 43 130
56 51 13 92 31 112 49 31 27 57 37 150 57 24 6 59 24 78 41 19 16 54 35 77 41
98 24 119 32 148 57 18 15 67 36 118 50 54 16 98 35 117 52 29 25 49 33 161
61 22 5 55 23 73 39 30 27 68 41 148 56 17 4 51 21 75 40 30 23 69 40 128 55
56 14 94 31 115 49 29 25 49 33 161 61 22 5 55 23 73 39 30 27 68 41 148 56
17 4 51 21 75 40 28 22 71 41 126 55 50 14 96 33 118 51 35 28 60 37 151 57
24 6 59 24 78 41 19 16 54 35 77 41 98 24 117 31 153 60 21 16 56 35 79 40 95
24 115 31 151 60 36 29 61 38 154 59 24 5 55 21 70 35 29 28 82 49 149 61 25
4 58 20 82 40 27 22 61 38 110 50 42 10 91 31 120 51 30 20 80 41 131 54 57
15 93 31 116 50 18 16 50 34 70 39 21 5 57 15 80 21 24 6 51 19 60 29 26 27
70 47 133 60 31 7 77 27 105 47 30 20 83 43 130 56 51 13 92 31 112 49 31 27
57 37 150 57 24 6 59 24 78 41 31 27 43 31 95 31 52 0 64 -4 95 -31z m9825
-6081 c14 -5 34 -18 45 -28 11 -10 51 -28 88 -40 37 -12 80 -32 95 -45 37 -30
64 -44 125 -62 29 -8 69 -29 90 -45 21 -17 66 -39 99 -50 77 -23 116 -53 159
-119 l33 -52 -30 -27 c-19 -16 -57 -33 -98 -44 -41 -10 -83 -29 -105 -46 -24
-20 -62 -35 -119 -48 -60 -14 -92 -28 -112 -47 -18 -18 -57 -35 -113 -51 -47
-13 -106 -38 -134 -57 -31 -21 -75 -39 -114 -47 -74 -15 -89 -22 -125 -55 -16
-15 -52 -30 -98 -40 -69 -15 -86 -23 -149 -68 -14 -10 -60 -27 -102 -38 -48
-12 -89 -29 -113 -48 -25 -21 -63 -36 -121 -50 -57 -14 -93 -28 -111 -46 -26
-25 -85 -49 -152 -60 -21 -3 -50 -16 -65 -29 -41 -34 -79 -51 -157 -70 -45
-11 -81 -27 -102 -46 -23 -20 -57 -34 -118 -48 -64 -15 -96 -29 -121 -51 -32
-28 -89 -51 -127 -51 -25 0 -68 -21 -108 -52 -21 -16 -68 -35 -120 -48 -56
-14 -94 -31 -115 -49 -29 -26 -48 -33 -162 -61 -24 -6 -51 -19 -60 -29 -26
-27 -70 -47 -131 -60 -60 -12 -85 -24 -124 -56 -15 -13 -65 -32 -117 -45 -55
-13 -97 -30 -108 -42 -26 -29 -60 -45 -131 -58 -44 -9 -75 -23 -105 -46 -29
-23 -64 -39 -111 -49 -76 -17 -98 -27 -138 -60 -15 -13 -65 -32 -117 -45 -55
-13 -97 -30 -108 -42 -26 -29 -48 -39 -131 -59 -48 -12 -86 -29 -106 -47 -22
-19 -61 -36 -120 -51 -48 -13 -99 -33 -114 -46 -38 -31 -59 -41 -122 -55 -84
-18 -85 -18 -120 -50 -22 -20 -54 -34 -103 -45 -77 -18 -101 -28 -133 -57 -12
-11 -66 -32 -120 -48 -54 -15 -100 -33 -102 -39 -6 -19 -74 -48 -141 -62 -44
-8 -74 -21 -102 -45 -28 -23 -60 -37 -111 -49 -47 -10 -91 -29 -124 -51 -31
-22 -81 -43 -129 -55 -48 -13 -91 -31 -114 -49 -23 -19 -66 -36 -121 -50 -56
-14 -94 -30 -112 -47 -16 -15 -58 -34 -111 -49 -47 -13 -106 -38 -134 -57 -31
-21 -75 -39 -114 -47 -74 -15 -89 -22 -124 -54 -14 -13 -49 -29 -78 -36 -67
-15 -137 -40 -137 -49 0 -14 -65 -44 -136 -62 -47 -12 -88 -29 -112 -48 -25
-21 -63 -36 -121 -50 -57 -14 -93 -28 -111 -46 -26 -25 -85 -49 -152 -60 -21
-3 -50 -16 -65 -29 -41 -34 -79 -51 -158 -70 -42 -11 -80 -27 -95 -41 -29 -28
-87 -50 -155 -60 -31 -5 -59 -19 -86 -41 -38 -31 -92 -54 -131 -54 -25 0 -68
-21 -108 -51 -20 -16 -70 -37 -120 -50 -54 -14 -96 -32 -116 -49 -28 -25 -47
-32 -161 -60 -24 -6 -51 -19 -60 -29 -25 -26 -71 -47 -118 -55 -58 -10 -96
-26 -131 -56 -21 -18 -61 -34 -122 -50 -56 -13 -98 -30 -109 -42 -26 -29 -60
-45 -131 -58 -44 -9 -75 -23 -105 -46 -29 -24 -63 -38 -113 -49 -66 -15 -85
-24 -146 -67 -13 -10 -62 -27 -108 -39 -58 -14 -94 -29 -117 -49 -18 -16 -52
-34 -75 -40 -101 -25 -125 -34 -154 -59 -19 -18 -61 -35 -118 -50 -51 -14 -99
-33 -116 -48 -45 -37 -89 -46 -141 -28 -24 9 -53 24 -64 34 -24 21 -60 35
-134 52 -31 7 -66 23 -85 40 -22 19 -59 34 -116 49 -55 14 -98 31 -121 50 -23
18 -67 37 -115 50 -42 11 -88 28 -102 37 -61 44 -80 53 -147 68 -51 11 -82 24
-106 46 -18 16 -51 34 -73 39 -112 28 -132 36 -160 60 -20 17 -62 35 -116 49
-52 14 -99 33 -120 50 -35 28 -65 40 -154 62 -27 7 -64 26 -83 42 -18 16 -52
33 -76 39 -91 20 -116 29 -151 57 -23 19 -68 37 -122 52 -53 14 -99 33 -121
51 -34 27 -54 34 -150 58 -23 6 -60 26 -82 44 -27 22 -55 36 -86 41 -68 10
-126 32 -155 60 -16 15 -54 32 -101 43 -82 21 -110 33 -151 67 -15 13 -59 30
-101 39 -53 12 -84 25 -107 46 -35 32 -36 32 -120 50 -63 14 -84 24 -122 55
-15 13 -66 33 -114 46 -61 16 -98 32 -126 55 -21 19 -56 36 -76 40 -80 13
-114 26 -147 55 -25 22 -57 36 -117 50 -56 13 -95 29 -120 49 -28 23 -157 70
-191 70 -3 0 -21 14 -42 30 -36 29 -55 36 -153 60 -23 6 -57 24 -75 40 -23 20
-59 35 -117 49 -46 12 -95 29 -108 39 -61 43 -80 52 -146 67 -50 11 -84 25
-114 49 -25 20 -60 37 -85 41 -65 12 -119 34 -148 61 -17 16 -52 31 -104 43
-48 12 -94 31 -121 50 -25 17 -82 41 -129 55 -56 15 -96 33 -118 53 -24 21
-53 34 -98 42 -72 14 -106 30 -132 59 -11 12 -53 29 -108 42 -60 15 -101 32
-125 51 -35 28 -55 35 -150 59 -23 5 -58 24 -79 40 -21 16 -56 35 -79 40 -112
28 -132 36 -161 61 -20 18 -59 35 -109 48 -49 12 -98 33 -130 55 -33 22 -77
41 -124 51 -51 12 -83 26 -111 49 -28 24 -58 37 -103 46 -71 14 -92 23 -128
55 -14 13 -61 32 -110 45 -52 13 -99 32 -120 49 -35 28 -65 40 -154 62 -27 7
-64 26 -82 42 -24 20 -57 34 -118 48 -60 15 -93 28 -116 49 -22 19 -59 36
-117 51 -52 14 -98 33 -120 51 -34 27 -54 34 -151 58 -23 6 -58 25 -77 42 -25
21 -55 35 -100 44 -72 15 -115 33 -161 67 -17 13 -58 29 -90 36 -66 15 -106
33 -147 67 -15 13 -44 26 -65 29 -67 12 -126 35 -153 61 -15 14 -46 30 -70 35
-93 21 -118 30 -153 58 -23 19 -68 38 -123 52 -56 15 -98 32 -117 50 -29 25
-53 34 -154 59 -23 6 -58 24 -77 41 -25 22 -57 36 -120 51 -50 12 -97 29 -113
42 -39 33 -64 44 -124 57 -60 13 -92 28 -127 58 -13 12 -43 26 -65 31 -109 28
-128 34 -151 56 -20 18 -25 33 -25 72 0 73 22 93 133 121 48 12 89 30 114 49
23 18 68 38 115 51 42 11 96 34 120 51 53 37 170 70 254 70 73 0 170 -31 219
-70 22 -18 68 -37 121 -51 53 -14 99 -33 121 -51 34 -27 54 -34 150 -58 23 -6
60 -26 82 -44 27 -22 55 -36 86 -41 66 -9 122 -31 155 -59 16 -13 65 -33 112
-46 56 -15 97 -33 127 -56 24 -18 60 -36 80 -40 78 -13 113 -26 146 -55 25
-22 57 -36 120 -51 50 -12 97 -29 113 -42 39 -33 64 -44 124 -57 61 -13 105
-33 131 -60 9 -10 36 -23 60 -29 111 -28 129 -34 152 -56 35 -32 50 -39 124
-54 39 -8 83 -26 114 -47 27 -18 87 -44 133 -57 54 -15 95 -34 117 -53 24 -21
54 -33 113 -46 59 -13 89 -25 113 -46 19 -17 57 -35 99 -45 89 -23 116 -34
139 -55 30 -28 55 -39 131 -56 51 -12 83 -26 112 -50 21 -18 56 -36 77 -39 78
-14 111 -27 147 -55 23 -19 68 -37 122 -52 53 -14 99 -33 121 -51 34 -27 54
-34 150 -58 23 -6 60 -26 82 -44 27 -22 55 -36 86 -41 66 -9 122 -31 155 -59
16 -13 65 -33 112 -46 56 -15 97 -33 127 -56 24 -18 60 -36 80 -40 78 -13 113
-26 146 -55 25 -22 57 -36 117 -50 57 -14 95 -29 120 -50 24 -19 65 -36 113
-48 72 -18 113 -38 143 -68 12 -12 28 -17 134 -44 26 -6 59 -22 73 -35 35 -32
50 -39 124 -54 39 -8 83 -26 114 -47 27 -18 87 -44 133 -57 54 -15 95 -34 117
-53 24 -21 54 -33 113 -46 59 -13 89 -25 113 -46 19 -17 57 -35 99 -45 89 -23
116 -34 139 -55 30 -28 55 -39 131 -56 51 -12 83 -26 112 -50 21 -18 56 -36
77 -39 78 -14 111 -27 147 -55 23 -19 68 -37 122 -52 53 -14 99 -33 121 -51
34 -27 54 -34 150 -58 23 -6 60 -26 82 -44 27 -22 55 -36 86 -41 66 -9 122
-31 155 -59 16 -13 59 -31 97 -41 78 -21 117 -38 156 -71 15 -13 44 -26 65
-30 80 -13 114 -26 147 -55 25 -22 57 -36 117 -50 57 -14 95 -29 120 -50 24
-19 65 -36 112 -48 71 -18 136 -48 136 -62 0 -9 70 -34 137 -49 29 -7 64 -23
78 -36 35 -32 50 -39 124 -54 39 -8 83 -26 114 -47 27 -18 87 -44 133 -57 54
-15 95 -34 117 -53 24 -21 54 -33 114 -46 57 -12 89 -25 109 -43 29 -27 36
-30 149 -63 39 -11 80 -29 91 -39 31 -30 55 -40 133 -58 51 -11 83 -25 107
-46 38 -33 119 -58 193 -58 68 0 161 28 198 60 18 16 52 34 75 40 24 6 57 15
75 20 17 4 49 22 70 39 23 18 64 37 103 47 68 17 98 31 140 64 14 11 62 30
108 43 45 14 93 33 105 44 31 29 52 38 135 58 41 10 76 23 79 31 9 23 52 44
128 63 52 13 86 29 110 50 19 16 54 35 77 41 78 19 113 33 148 61 20 15 69 36
114 49 52 13 91 31 113 50 31 28 57 38 150 58 24 6 59 24 78 41 19 16 54 35
77 41 24 6 59 15 79 21 19 5 46 20 59 34 21 23 54 36 156 64 23 6 58 24 79 41
21 16 56 35 79 40 86 23 131 41 156 65 16 16 54 32 104 45 51 13 89 29 110 48
18 16 55 34 82 41 76 20 134 42 134 52 0 13 56 39 133 60 38 11 85 33 105 48
22 17 70 38 117 51 51 14 92 33 112 51 31 27 57 37 150 57 24 6 59 24 78 40
19 17 54 36 77 42 89 23 114 34 144 60 20 17 58 34 101 44 66 16 84 25 146 69
15 11 61 28 104 39 55 14 87 28 108 48 22 21 53 35 109 49 49 12 88 29 105 44
35 33 56 43 124 57 31 6 70 22 85 34 39 33 66 46 145 67 42 12 84 31 102 48
21 18 62 36 116 51 55 15 95 32 116 51 18 15 51 33 73 39 22 5 57 14 78 20 21
5 53 23 71 39 17 16 53 34 79 41 81 20 129 40 147 60 10 11 61 33 115 49 53
17 103 38 110 47 20 23 57 39 138 59 41 10 76 23 79 31 9 23 52 44 130 64 47
12 86 28 102 43 35 33 56 43 124 57 31 6 70 22 85 34 40 33 66 46 146 68 41
11 82 30 97 44 25 24 131 64 170 64 10 0 33 13 51 29 44 38 63 47 130 61 39 7
71 22 97 44 22 18 61 39 88 45 94 25 112 32 149 62 20 16 55 34 78 40 83 21
135 40 147 55 19 23 47 35 121 55 43 11 80 28 101 46 19 16 56 35 83 42 71 18
134 42 134 50 0 13 62 43 131 62 39 11 87 33 107 48 22 18 69 38 117 51 49 13
90 32 106 47 26 23 131 63 170 63 10 0 33 13 51 29 44 38 63 47 130 61 39 8
71 22 97 44 28 23 62 39 111 51 39 9 85 28 103 41 53 38 78 50 152 69 39 10
81 28 95 40 51 46 70 49 140 23z m-19635 -1990 c11 -6 31 -21 45 -33 14 -13
61 -32 110 -45 52 -13 99 -32 120 -49 35 -28 65 -40 154 -62 27 -7 64 -26 83
-42 18 -16 52 -33 76 -39 91 -20 116 -29 151 -57 23 -19 68 -37 122 -52 53
-14 99 -33 121 -51 34 -27 54 -34 151 -58 23 -6 58 -24 77 -41 25 -22 57 -36
119 -50 60 -15 93 -28 116 -49 22 -19 59 -36 117 -51 52 -14 98 -33 120 -51
34 -27 54 -34 151 -58 23 -6 58 -24 77 -41 25 -22 57 -36 121 -51 61 -14 95
-28 119 -49 22 -19 58 -35 108 -48 72 -18 137 -48 137 -62 0 -9 70 -34 137
-49 31 -7 64 -23 84 -41 18 -16 51 -34 73 -39 92 -22 145 -41 157 -56 18 -22
56 -40 119 -54 63 -15 103 -33 142 -65 15 -13 59 -30 101 -39 49 -11 84 -25
101 -41 37 -34 52 -41 121 -55 66 -14 105 -30 125 -54 7 -9 45 -26 84 -37 103
-30 123 -38 162 -70 20 -16 53 -31 73 -35 66 -10 125 -34 152 -60 15 -14 46
-30 70 -35 93 -21 118 -30 153 -58 23 -19 68 -38 123 -52 60 -16 97 -32 125
-55 21 -19 56 -36 76 -40 80 -13 114 -26 147 -55 24 -21 56 -36 102 -46 74
-17 117 -35 148 -63 11 -10 60 -30 108 -43 56 -16 99 -34 115 -50 25 -24 47
-32 150 -57 23 -6 58 -24 77 -41 25 -22 57 -36 117 -50 56 -13 95 -29 120 -49
28 -23 157 -70 191 -70 3 0 21 -14 42 -30 36 -29 55 -36 153 -60 23 -6 58 -24
77 -41 25 -22 57 -36 120 -51 50 -12 97 -29 113 -42 39 -33 64 -45 124 -57 53
-11 128 -46 128 -60 0 -9 70 -34 137 -49 34 -8 62 -22 80 -40 21 -21 50 -34
112 -49 47 -12 96 -29 109 -39 61 -43 80 -52 132 -63 62 -13 105 -32 136 -61
12 -11 56 -28 98 -38 72 -18 126 -44 126 -60 0 -10 44 -26 114 -41 32 -7 73
-23 90 -36 44 -32 102 -58 166 -71 34 -8 71 -25 98 -46 25 -20 60 -37 85 -41
65 -12 119 -34 148 -61 17 -16 52 -31 104 -43 48 -12 94 -31 121 -50 25 -17
82 -41 129 -55 56 -15 96 -33 118 -53 24 -21 53 -34 98 -42 73 -15 94 -24 129
-56 15 -15 58 -32 110 -45 56 -14 98 -31 122 -50 28 -23 158 -70 192 -70 2 0
22 -15 44 -34 29 -24 58 -37 104 -46 71 -14 105 -29 132 -59 26 -29 117 -30
143 -2 28 28 72 48 142 62 45 8 74 21 98 42 22 19 62 38 117 53 46 13 106 39
133 57 31 21 75 39 114 47 74 15 89 22 125 55 16 15 52 30 98 40 69 15 86 23
149 68 14 10 60 27 102 38 48 12 89 29 113 48 25 21 63 36 120 50 60 14 92 28
117 50 33 29 67 42 147 55 21 4 50 17 65 30 41 34 81 52 147 67 32 7 73 23 90
36 46 34 89 52 161 67 45 9 75 23 100 44 19 17 54 36 77 42 97 24 117 31 151
58 22 18 68 37 121 51 54 15 99 33 122 52 36 28 69 41 147 55 21 3 56 21 77
39 29 24 61 38 112 50 47 10 91 29 124 51 31 22 81 43 129 55 48 13 91 31 114
49 23 19 66 36 121 50 58 15 94 30 117 51 19 16 36 29 39 29 26 0 164 46 179
60 31 28 74 46 149 63 44 10 78 24 95 41 29 28 82 49 149 61 23 4 55 17 70 30
39 32 80 51 140 64 60 13 85 24 124 57 16 13 63 30 113 42 63 15 95 29 120 51
19 17 54 35 77 41 101 25 125 34 154 59 19 18 61 35 118 50 48 13 99 33 114
46 39 32 60 41 127 55 69 14 84 21 120 55 17 15 53 30 97 40 78 18 102 28 134
57 12 11 66 32 119 48 54 15 102 34 106 42 11 20 71 45 148 62 40 10 73 24 90
40 27 26 86 50 153 61 21 3 50 16 65 29 41 34 79 51 157 70 44 11 81 27 101
45 29 25 49 33 161 61 23 5 58 24 79 40 21 16 56 35 79 40 95 24 115 31 150
59 24 19 65 36 125 51 55 13 97 30 108 42 26 29 60 45 131 58 44 9 75 23 105
46 29 24 63 38 113 49 66 15 85 24 146 67 13 10 62 27 108 39 58 14 94 29 117
49 18 16 52 34 75 40 101 25 125 34 154 59 19 18 61 35 117 50 55 14 100 33
123 52 35 28 60 37 153 58 24 5 55 21 70 35 30 29 66 44 135 57 28 5 72 25
101 45 33 22 80 42 129 54 49 13 90 30 114 49 25 21 63 36 120 50 60 14 92 28
117 50 32 28 89 51 127 51 25 0 68 21 108 51 48 38 102 49 179 40 55 -7 68
-12 91 -39 18 -22 45 -37 91 -51 41 -13 75 -31 93 -50 18 -19 55 -39 94 -52
37 -12 81 -36 102 -56 21 -18 61 -40 88 -48 65 -20 101 -50 136 -116 l29 -52
-30 -27 c-21 -19 -54 -33 -106 -44 -46 -11 -82 -25 -93 -37 -27 -30 -48 -40
-132 -60 -48 -12 -86 -29 -106 -47 -22 -19 -61 -36 -120 -51 -50 -13 -99 -33
-116 -47 -33 -28 -89 -50 -155 -59 -31 -5 -59 -19 -86 -41 -38 -31 -92 -54
-131 -54 -25 0 -68 -21 -108 -52 -21 -16 -68 -35 -120 -48 -54 -14 -94 -30
-110 -45 -29 -28 -57 -39 -147 -60 -43 -10 -77 -25 -99 -45 -19 -16 -53 -34
-76 -40 -98 -24 -119 -32 -166 -63 -30 -21 -74 -39 -113 -47 -74 -15 -89 -22
-124 -55 -17 -15 -53 -30 -97 -40 -78 -18 -102 -28 -134 -57 -12 -11 -65 -32
-118 -47 -53 -16 -107 -37 -119 -48 -31 -28 -53 -38 -117 -53 -84 -18 -85 -18
-120 -50 -22 -20 -54 -34 -103 -45 -77 -17 -99 -27 -138 -60 -14 -11 -66 -32
-115 -44 -52 -14 -99 -33 -114 -46 -35 -32 -56 -41 -124 -55 -67 -14 -106 -29
-106 -41 0 -14 -71 -46 -128 -58 -60 -12 -85 -24 -124 -56 -14 -12 -65 -32
-115 -44 -57 -15 -97 -31 -113 -46 -28 -27 -82 -49 -148 -60 -23 -4 -55 -17
-70 -29 -41 -35 -69 -47 -149 -67 -47 -12 -87 -30 -111 -48 -25 -21 -63 -36
-120 -50 -59 -14 -93 -28 -117 -49 -23 -21 -56 -35 -106 -46 -77 -18 -102 -29
-132 -57 -23 -21 -49 -31 -140 -54 -38 -10 -76 -26 -85 -35 -27 -27 -72 -47
-140 -60 -45 -9 -75 -22 -103 -46 -28 -23 -60 -37 -111 -49 -78 -17 -100 -27
-139 -60 -14 -11 -66 -32 -115 -44 -52 -14 -99 -33 -114 -46 -36 -32 -57 -41
-128 -55 -44 -9 -75 -23 -105 -46 -29 -23 -64 -39 -111 -49 -76 -18 -98 -27
-138 -61 -16 -13 -63 -30 -113 -42 -63 -15 -95 -29 -120 -51 -33 -29 -67 -42
-147 -55 -21 -4 -50 -17 -65 -30 -41 -34 -79 -51 -157 -70 -45 -11 -81 -27
-102 -46 -23 -20 -57 -34 -118 -48 -62 -15 -96 -29 -120 -49 -18 -16 -55 -35
-82 -42 -88 -22 -116 -33 -158 -63 -24 -16 -76 -38 -120 -49 -49 -13 -92 -31
-115 -49 -24 -20 -62 -35 -118 -48 -59 -14 -92 -28 -116 -49 -23 -20 -60 -36
-121 -52 -48 -13 -99 -33 -114 -46 -40 -33 -59 -41 -143 -59 -49 -11 -84 -24
-95 -37 -27 -30 -48 -40 -132 -60 -48 -12 -86 -29 -106 -47 -22 -19 -61 -36
-120 -51 -50 -13 -99 -33 -116 -47 -33 -28 -89 -50 -155 -59 -31 -5 -59 -19
-86 -41 -38 -31 -92 -54 -131 -54 -25 0 -68 -21 -108 -52 -21 -16 -68 -35
-120 -48 -56 -14 -94 -31 -115 -49 -29 -25 -49 -33 -161 -61 -23 -5 -58 -24
-79 -40 -21 -16 -56 -35 -79 -40 -107 -27 -126 -33 -138 -47 -18 -22 -77 -49
-138 -63 -84 -18 -85 -18 -120 -50 -88 -79 -345 -76 -430 5 -16 15 -56 31
-113 46 -50 12 -101 32 -115 44 -40 33 -62 43 -141 61 -50 11 -83 25 -106 46
-24 21 -58 35 -117 49 -56 13 -95 29 -119 49 -24 19 -66 36 -120 50 -55 14
-97 31 -121 51 -23 18 -65 36 -111 48 -83 21 -104 30 -131 60 -12 13 -47 27
-100 38 -54 12 -97 28 -130 51 -37 25 -167 72 -199 72 -3 0 -21 13 -42 30 -21
16 -56 35 -79 40 -112 28 -132 35 -160 60 -20 18 -62 35 -120 50 -49 13 -101
34 -115 45 -39 33 -60 42 -137 60 -45 10 -82 26 -107 46 -26 21 -64 37 -120
50 -56 14 -94 29 -119 50 -24 18 -64 36 -111 48 -80 20 -108 32 -148 66 -15
12 -55 28 -90 34 -72 15 -93 24 -129 56 -14 13 -62 32 -110 45 -82 21 -140 47
-140 61 0 9 -70 35 -139 50 -32 7 -66 23 -87 41 -24 21 -57 35 -120 50 -61 14
-95 28 -118 49 -23 19 -59 35 -121 50 -61 15 -98 31 -120 51 -22 18 -58 34
-107 47 -83 20 -105 30 -132 59 -11 13 -47 27 -99 38 -54 12 -97 29 -129 51
-47 31 -69 39 -164 63 -23 5 -58 24 -79 40 -21 16 -56 35 -79 40 -112 28 -132
35 -160 60 -20 18 -62 35 -120 50 -49 13 -101 34 -115 45 -39 33 -61 43 -140
61 -50 11 -83 25 -106 46 -24 21 -58 35 -117 49 -57 14 -95 29 -120 50 -24 18
-64 36 -111 48 -80 20 -108 32 -148 66 -15 12 -55 28 -90 34 -71 14 -93 24
-126 54 -12 11 -62 30 -110 43 -55 15 -106 37 -138 59 -29 20 -73 39 -101 44
-69 13 -102 28 -139 60 -21 18 -50 31 -80 35 -66 10 -122 32 -155 60 -17 14
-66 34 -116 47 -59 16 -98 32 -120 51 -22 20 -58 35 -118 49 -60 15 -94 30
-117 50 -34 31 -35 31 -119 49 -62 14 -105 34 -135 61 -12 10 -54 27 -95 37
-78 20 -140 47 -140 61 0 12 -39 27 -106 41 -67 14 -89 24 -121 53 -12 11 -66
32 -119 48 -53 15 -106 36 -118 47 -32 29 -56 39 -135 58 -51 11 -83 25 -106
46 -25 21 -58 35 -120 50 -50 12 -97 29 -113 42 -40 34 -62 43 -138 61 -47 10
-82 26 -111 49 -29 23 -61 37 -105 46 -66 13 -134 42 -140 61 -2 6 -44 22 -92
35 -49 13 -107 36 -130 51 -48 33 -92 53 -115 53 -38 0 -93 23 -130 54 -27 22
-55 36 -86 41 -65 9 -126 32 -152 57 -12 11 -66 33 -119 49 -53 15 -106 36
-118 47 -29 27 -52 37 -114 52 -54 13 -112 51 -112 75 0 17 72 113 100 132 12
9 53 23 91 33 45 12 81 29 104 49 19 16 54 35 77 41 24 6 59 16 79 21 20 5 44
18 55 30 26 29 64 47 123 60 28 6 68 25 93 44 24 18 59 38 78 44 39 11 154 4
185 -11z m-40 -1892 c22 -10 52 -28 66 -42 17 -17 53 -31 110 -45 57 -13 96
-29 120 -49 22 -18 70 -38 122 -53 59 -17 98 -34 121 -55 20 -17 52 -34 73
-37 68 -11 127 -35 153 -60 18 -17 57 -34 114 -49 51 -14 96 -32 111 -46 13
-13 61 -33 107 -47 47 -13 105 -39 133 -58 28 -19 74 -39 105 -46 65 -14 86
-23 121 -56 17 -16 55 -31 111 -44 61 -14 95 -28 118 -49 21 -19 59 -36 113
-50 49 -13 96 -33 117 -49 35 -28 65 -40 153 -62 27 -7 66 -27 87 -44 27 -23
57 -36 102 -45 71 -14 92 -23 128 -55 14 -13 44 -28 68 -34 23 -6 59 -16 81
-21 21 -6 55 -24 76 -40 36 -29 55 -36 153 -60 23 -6 57 -24 75 -39 18 -16 51
-34 75 -40 23 -6 60 -16 82 -21 22 -6 55 -24 73 -40 23 -19 59 -35 116 -50 52
-13 101 -34 133 -55 27 -19 66 -37 86 -41 64 -12 113 -33 147 -63 20 -17 51
-32 77 -36 66 -12 120 -33 149 -61 17 -16 52 -31 102 -43 42 -10 88 -27 103
-37 64 -46 82 -54 134 -65 62 -13 107 -33 133 -60 16 -17 39 -26 135 -49 23
-6 58 -24 77 -41 25 -22 57 -36 117 -50 56 -13 95 -29 119 -49 22 -18 70 -38
122 -53 59 -17 98 -34 121 -55 20 -17 52 -34 73 -37 68 -12 127 -35 154 -61
15 -14 46 -30 70 -35 94 -21 119 -30 150 -56 18 -15 66 -37 113 -50 45 -13
103 -39 131 -58 28 -19 74 -39 105 -46 65 -14 86 -23 121 -56 17 -16 55 -31
111 -44 61 -14 95 -28 118 -49 21 -19 59 -36 113 -50 49 -13 96 -33 117 -49
35 -28 65 -40 153 -62 27 -7 66 -27 87 -44 27 -23 57 -36 102 -45 71 -14 92
-23 128 -55 14 -13 45 -28 70 -35 25 -6 61 -16 81 -21 20 -5 53 -23 74 -39 36
-29 55 -36 153 -60 23 -6 57 -24 75 -39 18 -16 51 -34 75 -40 23 -6 60 -16 82
-21 22 -6 55 -24 73 -40 23 -19 59 -35 116 -50 52 -13 101 -34 133 -55 27 -19
66 -37 86 -41 64 -12 113 -33 147 -63 20 -17 51 -32 77 -36 66 -12 120 -33
149 -61 17 -16 52 -31 102 -43 42 -10 88 -27 103 -37 64 -46 82 -54 134 -65
62 -13 107 -33 133 -60 16 -17 39 -26 135 -49 23 -6 58 -24 77 -41 25 -22 57
-36 117 -50 56 -13 95 -29 119 -49 22 -18 70 -38 122 -53 59 -17 98 -34 121
-55 20 -17 52 -34 73 -37 68 -12 127 -35 154 -61 75 -71 301 -68 384 5 19 16
54 35 77 41 112 28 128 34 149 56 20 22 53 35 156 63 23 6 55 23 71 36 35 30
62 40 154 61 38 9 72 22 75 29 9 24 51 45 130 65 50 12 85 28 103 45 19 18 58
35 115 51 53 15 102 36 124 54 22 17 68 37 118 50 54 14 92 31 113 50 21 19
56 34 103 45 83 20 97 27 132 60 17 15 53 30 98 40 46 10 90 29 122 51 30 20
83 43 130 56 51 13 92 31 112 49 31 27 57 37 150 57 24 6 59 24 78 41 19 16
54 35 77 41 98 24 117 31 153 60 21 17 50 33 64 36 83 19 135 38 160 60 33 27
85 48 149 59 26 4 57 19 77 36 34 30 89 52 158 64 21 3 53 20 73 37 23 21 62
38 121 55 51 14 100 35 122 53 23 19 65 36 121 50 47 12 92 29 100 39 28 32
47 41 123 60 48 12 89 30 114 49 23 18 68 38 115 51 42 11 96 34 120 51 26 18
77 39 123 51 53 14 90 30 112 49 18 16 50 34 70 39 21 5 58 15 83 21 24 7 59
25 77 41 18 15 52 33 75 39 98 24 117 31 153 60 21 16 55 34 76 40 22 5 58 15
82 21 23 6 53 21 67 34 36 32 57 41 128 55 46 9 75 22 103 46 38 32 92 54 132
54 23 0 76 27 104 52 12 11 61 31 110 45 53 15 98 34 113 48 28 27 82 49 147
59 23 4 61 22 85 41 43 33 82 48 149 59 20 4 56 22 80 40 28 22 72 42 122 55
48 13 93 33 115 51 25 20 64 36 120 49 60 14 92 28 117 50 19 17 54 35 77 41
96 23 119 32 135 49 25 26 71 48 118 57 49 9 111 36 146 65 15 12 62 30 104
40 50 11 88 27 104 42 36 34 57 43 129 57 46 9 75 22 104 46 21 19 58 38 81
44 96 24 116 31 150 58 21 17 68 37 119 51 50 14 93 32 108 46 28 27 83 49
148 60 26 4 57 19 77 36 33 30 102 59 137 59 24 0 74 25 111 56 15 13 47 28
70 34 23 6 61 15 84 21 23 6 56 24 74 40 22 20 56 34 115 48 64 15 91 26 114
50 23 22 48 34 106 46 43 10 87 27 102 40 39 32 66 45 145 66 39 11 83 31 98
44 48 40 91 49 152 31 29 -9 61 -24 71 -35 17 -18 45 -28 153 -51 29 -7 69
-25 88 -40 26 -20 64 -35 131 -51 67 -15 105 -30 131 -50 35 -29 69 -41 148
-55 43 -7 110 -37 120 -54 3 -5 10 -33 14 -60 8 -48 6 -52 -20 -74 -17 -15
-61 -32 -114 -44 -63 -15 -95 -29 -120 -51 -19 -17 -54 -35 -77 -41 -101 -25
-125 -34 -154 -59 -19 -18 -61 -35 -117 -50 -55 -14 -100 -33 -123 -52 -35
-28 -60 -37 -153 -58 -24 -5 -55 -21 -70 -35 -27 -26 -86 -49 -153 -61 -21 -3
-50 -16 -65 -29 -40 -33 -80 -51 -143 -66 -63 -14 -101 -32 -119 -54 -12 -15
-65 -34 -157 -56 -22 -5 -55 -23 -73 -39 -20 -18 -53 -34 -84 -41 -67 -15
-137 -40 -137 -49 0 -14 -62 -42 -135 -61 -47 -12 -89 -30 -113 -49 -25 -21
-63 -36 -120 -50 -60 -14 -92 -28 -117 -50 -19 -17 -54 -35 -77 -41 -97 -24
-117 -31 -151 -58 -22 -18 -68 -37 -121 -51 -54 -15 -99 -33 -122 -52 -35 -28
-60 -37 -151 -57 -24 -6 -58 -23 -76 -39 -19 -16 -56 -35 -83 -42 -87 -22
-119 -33 -139 -51 -31 -28 -74 -46 -152 -65 -41 -10 -79 -25 -90 -37 -25 -28
-43 -36 -127 -57 -48 -12 -88 -30 -113 -49 -24 -20 -62 -37 -106 -47 -70 -16
-117 -34 -117 -44 0 -14 -64 -43 -137 -62 -49 -13 -88 -30 -108 -48 -29 -25
-49 -33 -161 -61 -23 -5 -58 -24 -79 -40 -21 -16 -56 -35 -79 -40 -95 -24
-115 -31 -149 -58 -23 -18 -67 -37 -124 -51 -52 -14 -98 -33 -113 -46 -36 -32
-57 -41 -128 -55 -46 -9 -75 -22 -104 -46 -22 -19 -42 -34 -44 -34 -26 0 -164
-46 -179 -60 -31 -28 -74 -46 -149 -63 -44 -10 -78 -24 -95 -41 -29 -27 -82
-49 -148 -61 -25 -4 -60 -21 -85 -41 -27 -21 -64 -38 -98 -46 -64 -14 -122
-39 -166 -71 -18 -13 -66 -31 -109 -40 -58 -13 -84 -24 -106 -46 -18 -19 -47
-33 -81 -41 -73 -16 -138 -40 -138 -51 0 -14 -70 -45 -128 -58 -60 -13 -85
-24 -124 -57 -16 -13 -63 -30 -113 -42 -63 -15 -95 -29 -120 -51 -19 -17 -54
-35 -77 -41 -103 -25 -125 -33 -150 -57 -16 -15 -59 -34 -113 -49 -54 -16
-101 -36 -124 -54 -24 -20 -63 -36 -119 -49 -60 -14 -92 -28 -117 -50 -33 -29
-67 -42 -147 -55 -20 -4 -55 -21 -76 -40 -28 -23 -65 -39 -125 -55 -55 -14
-100 -33 -123 -52 -35 -28 -60 -37 -150 -57 -23 -5 -59 -23 -81 -40 -26 -22
-61 -37 -111 -48 -41 -9 -85 -26 -100 -39 -39 -32 -79 -51 -142 -65 -63 -15
-84 -24 -122 -56 -16 -13 -63 -30 -113 -42 -63 -15 -95 -29 -120 -51 -19 -17
-54 -35 -77 -41 -97 -24 -117 -31 -151 -58 -22 -18 -68 -37 -120 -51 -58 -15
-95 -32 -117 -51 -23 -21 -56 -34 -116 -49 -62 -14 -94 -28 -119 -50 -32 -28
-89 -51 -127 -51 -26 0 -69 -21 -104 -50 -18 -16 -63 -35 -117 -49 -55 -14
-100 -33 -123 -52 -35 -28 -60 -37 -151 -57 -24 -6 -59 -24 -78 -41 -31 -27
-43 -31 -95 -31 -52 0 -64 4 -94 31 -26 22 -58 36 -118 50 -57 14 -95 29 -120
50 -24 18 -64 36 -111 48 -80 20 -108 32 -150 67 -15 13 -44 26 -65 30 -80 13
-114 26 -147 55 -25 22 -57 36 -120 51 -50 12 -97 29 -113 42 -39 33 -64 44
-124 57 -60 13 -101 32 -140 64 -15 13 -47 26 -70 30 -66 11 -120 33 -148 60
-16 15 -56 31 -114 46 -59 15 -99 31 -120 49 -35 30 -73 46 -131 56 -47 8 -93
29 -118 55 -9 10 -36 23 -60 29 -114 28 -133 35 -161 60 -20 17 -62 35 -116
49 -53 14 -99 33 -121 51 -34 27 -57 36 -156 60 -23 6 -60 26 -82 44 -27 22
-55 36 -86 41 -66 9 -122 31 -155 59 -17 14 -66 34 -116 47 -59 15 -98 32
-120 51 -20 18 -58 35 -106 47 -83 20 -105 30 -131 59 -11 12 -53 29 -108 42
-52 13 -102 32 -117 45 -40 33 -62 43 -140 60 -51 12 -83 26 -111 49 -28 24
-58 37 -103 46 -71 14 -92 23 -128 55 -15 13 -62 32 -114 46 -49 12 -101 33
-115 44 -39 33 -61 43 -139 60 -51 12 -83 26 -112 50 -21 18 -56 36 -77 39
-78 14 -111 27 -147 55 -23 19 -68 38 -123 52 -47 13 -98 33 -112 44 -39 33
-61 43 -138 60 -49 11 -81 25 -103 45 -35 32 -36 32 -120 50 -64 15 -86 25
-117 53 -12 11 -66 32 -119 48 -53 15 -106 36 -118 47 -32 29 -56 39 -134 57
-44 10 -80 25 -97 40 -35 33 -50 40 -124 55 -39 8 -83 26 -114 47 -28 19 -87
44 -134 57 -53 15 -95 34 -111 49 -18 17 -56 33 -112 47 -55 14 -98 31 -121
50 -23 18 -66 36 -114 49 -49 12 -97 33 -130 55 -29 20 -72 40 -101 45 -69 13
-105 28 -135 57 -17 17 -53 31 -110 45 -58 14 -96 29 -121 50 -24 18 -64 36
-111 48 -80 20 -108 32 -150 67 -15 13 -44 26 -65 29 -67 11 -126 35 -152 60
-18 18 -54 32 -111 46 -58 14 -96 29 -121 50 -24 18 -64 36 -111 48 -80 20
-108 32 -149 67 -15 12 -47 25 -70 29 -66 12 -120 33 -149 61 -17 17 -53 31
-107 44 -54 13 -99 31 -132 54 -30 21 -74 39 -108 46 -64 14 -85 23 -125 56
-15 13 -47 28 -70 34 -114 28 -133 35 -162 61 -21 18 -59 35 -115 49 -52 13
-99 32 -120 48 -40 31 -83 52 -108 52 -39 0 -93 23 -131 54 -27 22 -55 36 -86
41 -66 9 -122 31 -155 59 -16 13 -65 33 -112 46 -50 13 -97 33 -119 50 -34 27
-57 36 -157 60 -23 6 -58 25 -77 41 -23 20 -56 36 -97 45 -66 16 -108 45 -108
76 0 55 75 129 169 167 39 16 86 42 104 58 19 17 54 35 79 41 24 6 64 27 89
47 24 19 68 42 97 51 29 9 68 28 85 43 38 33 71 52 112 62 46 12 176 3 220
-15z m-168 -1941 c12 -9 68 -27 125 -41 74 -18 114 -34 140 -55 24 -18 65 -36
112 -48 71 -18 136 -48 136 -62 0 -9 70 -34 137 -49 30 -7 64 -23 84 -41 18
-16 39 -31 48 -33 9 -2 49 -12 90 -21 47 -12 85 -27 105 -45 35 -30 67 -43
145 -61 31 -7 66 -23 85 -40 23 -19 59 -35 121 -50 60 -15 98 -31 120 -50 20
-18 57 -34 101 -45 76 -19 118 -37 149 -64 20 -18 52 -29 139 -51 27 -7 64
-26 82 -41 23 -21 58 -35 116 -49 57 -14 95 -29 120 -50 24 -18 64 -36 111
-48 80 -20 108 -32 150 -67 15 -13 44 -26 65 -29 67 -11 126 -35 152 -60 18
-18 54 -32 111 -46 58 -14 96 -29 121 -50 24 -18 64 -36 111 -48 80 -20 108
-32 149 -67 15 -12 47 -25 70 -29 66 -12 120 -33 149 -61 17 -17 53 -31 110
-45 56 -13 96 -29 120 -48 34 -28 57 -37 155 -61 23 -5 58 -24 79 -40 21 -16
56 -35 79 -40 112 -28 132 -36 161 -61 21 -18 59 -35 115 -49 52 -13 99 -32
120 -48 40 -31 83 -52 108 -52 39 0 93 -23 131 -54 27 -22 55 -36 86 -41 68
-10 126 -32 155 -60 15 -14 53 -30 95 -41 79 -19 117 -36 158 -70 15 -13 44
-26 65 -30 80 -13 114 -26 147 -55 25 -22 57 -36 120 -51 50 -12 97 -29 113
-42 39 -33 64 -44 124 -57 60 -13 101 -32 140 -64 15 -13 47 -26 70 -30 66
-11 120 -33 148 -60 16 -15 56 -31 113 -46 50 -12 101 -32 115 -44 39 -32 64
-44 124 -56 61 -13 105 -33 131 -60 9 -10 36 -23 60 -29 114 -28 133 -35 161
-60 20 -17 62 -35 116 -49 50 -13 100 -34 120 -50 40 -30 83 -51 108 -51 39 0
95 -23 128 -52 24 -21 54 -35 99 -44 73 -15 118 -34 156 -64 14 -12 61 -30
105 -41 54 -14 93 -31 123 -55 24 -18 60 -36 80 -40 78 -13 113 -26 146 -55
25 -22 57 -36 120 -51 50 -12 97 -29 113 -42 40 -34 61 -43 138 -61 45 -10 82
-26 107 -47 25 -19 65 -37 113 -49 84 -21 102 -29 127 -57 11 -12 53 -29 108
-42 52 -13 102 -32 117 -45 39 -32 64 -44 124 -56 57 -12 128 -44 128 -58 0
-12 39 -27 106 -41 68 -14 89 -23 124 -55 15 -13 61 -32 113 -46 57 -14 101
-33 124 -51 34 -27 54 -34 151 -58 23 -6 58 -25 77 -42 83 -72 320 -75 394 -4
27 26 86 50 153 61 21 3 50 16 65 29 39 33 78 50 156 70 38 10 83 31 103 47
35 28 60 37 153 58 24 5 55 21 70 35 27 26 86 49 153 61 21 3 50 16 65 29 39
33 78 50 156 70 38 10 83 31 103 47 35 28 60 37 150 57 23 5 59 23 80 40 39
30 78 45 146 57 21 3 50 16 65 29 39 33 78 50 156 70 38 10 83 31 103 47 35
28 60 37 150 57 23 5 59 23 80 40 39 30 78 45 145 56 20 4 53 19 73 35 39 32
59 40 162 70 39 11 77 28 84 37 21 24 60 41 128 54 44 9 75 23 105 46 30 24
63 38 114 50 46 10 85 26 108 44 38 31 59 39 161 69 39 11 77 28 84 37 21 24
60 41 128 54 44 9 75 23 105 46 30 24 63 38 114 50 46 10 85 26 108 44 38 31
59 39 161 69 39 11 77 28 84 37 20 24 59 40 125 54 69 14 84 21 121 55 17 15
52 30 100 40 47 11 86 27 109 45 38 31 59 39 161 69 39 11 77 28 84 37 20 24
59 40 125 54 69 14 84 21 121 55 17 16 52 30 101 41 42 9 86 26 101 39 38 32
77 49 155 69 37 10 83 31 102 46 32 25 51 32 161 60 22 5 55 23 73 39 24 22
55 35 108 47 42 9 86 26 101 39 39 32 79 50 142 65 63 14 101 32 119 54 12 15
65 34 157 56 22 5 55 23 73 39 24 22 55 35 108 47 42 9 86 26 101 39 39 32 79
50 142 65 63 14 101 32 119 54 12 15 65 34 157 56 22 5 55 23 73 39 24 22 55
35 106 46 48 11 88 28 120 51 27 19 66 39 87 44 21 6 55 15 77 20 21 6 54 23
74 39 34 26 53 33 163 61 22 5 55 23 73 39 23 21 55 35 105 46 46 10 89 29
122 51 32 22 81 43 130 55 50 13 89 30 109 48 29 25 49 33 161 61 22 5 55 23
73 39 24 22 55 35 108 47 42 9 86 26 101 39 40 33 79 50 157 69 42 11 80 27
95 41 29 28 87 50 155 61 30 4 59 17 79 34 42 36 61 46 126 59 32 7 77 27 108
48 40 28 73 41 138 54 81 16 90 16 179 -2 98 -18 126 -29 160 -60 12 -11 61
-27 118 -39 103 -21 129 -31 163 -62 13 -11 59 -26 120 -39 72 -14 111 -27
141 -49 23 -16 64 -36 92 -44 65 -19 88 -32 101 -57 17 -30 -11 -65 -73 -93
-29 -13 -65 -35 -81 -49 -18 -17 -52 -31 -99 -42 -47 -10 -90 -29 -123 -51
-32 -22 -81 -43 -130 -55 -46 -12 -89 -30 -104 -44 -35 -32 -56 -41 -128 -55
-45 -9 -75 -22 -102 -45 -21 -17 -60 -37 -87 -44 -88 -22 -118 -34 -153 -62
-21 -16 -68 -36 -117 -49 -54 -14 -92 -31 -113 -50 -23 -21 -56 -35 -116 -49
-62 -14 -94 -28 -119 -50 -19 -17 -54 -35 -77 -41 -98 -24 -117 -31 -153 -60
-21 -16 -56 -35 -79 -40 -109 -27 -126 -34 -143 -52 -25 -28 -43 -36 -127 -57
-47 -12 -89 -30 -113 -49 -38 -30 -77 -45 -144 -56 -20 -4 -56 -22 -80 -40
-29 -23 -71 -41 -127 -56 -50 -14 -96 -33 -118 -51 -35 -28 -60 -37 -151 -57
-24 -6 -59 -24 -78 -41 -19 -16 -54 -35 -77 -41 -112 -28 -128 -34 -149 -56
-22 -23 -35 -29 -140 -58 -31 -9 -72 -29 -92 -45 -25 -19 -66 -36 -125 -51
-67 -16 -95 -28 -115 -50 -18 -18 -45 -32 -79 -40 -73 -16 -138 -40 -138 -51
0 -14 -71 -46 -130 -58 -52 -11 -70 -19 -134 -65 -15 -10 -61 -27 -103 -37
-50 -12 -85 -27 -102 -43 -29 -28 -83 -49 -149 -61 -27 -4 -57 -19 -78 -37
-23 -21 -63 -39 -121 -55 -51 -14 -100 -35 -122 -53 -23 -19 -66 -36 -121 -50
-58 -15 -94 -30 -117 -50 -18 -16 -52 -34 -75 -40 -102 -25 -125 -34 -155 -61
-18 -15 -52 -33 -75 -39 -97 -24 -117 -31 -151 -58 -21 -17 -69 -38 -118 -51
-53 -15 -95 -33 -115 -50 -28 -25 -48 -33 -160 -61 -22 -5 -55 -23 -73 -39
-24 -22 -55 -35 -108 -47 -42 -9 -86 -26 -101 -39 -39 -32 -77 -49 -157 -70
-43 -11 -83 -29 -102 -46 -31 -27 -57 -37 -150 -57 -24 -6 -59 -24 -78 -40
-32 -29 -89 -52 -127 -52 -26 0 -69 -21 -104 -50 -18 -16 -63 -35 -116 -49
-59 -15 -96 -31 -118 -51 -23 -21 -56 -34 -118 -49 -56 -13 -94 -28 -111 -44
-35 -33 -56 -42 -121 -56 -31 -7 -77 -27 -106 -47 -30 -21 -80 -43 -123 -54
-39 -10 -83 -26 -98 -37 -63 -44 -79 -52 -140 -63 -46 -9 -75 -21 -98 -42 -34
-29 -89 -51 -157 -63 -20 -3 -55 -20 -76 -39 -28 -23 -65 -39 -125 -55 -55
-14 -100 -33 -123 -52 -20 -16 -54 -33 -75 -39 -22 -5 -58 -15 -81 -21 -24 -6
-58 -24 -76 -40 -18 -16 -35 -29 -38 -29 -35 0 -164 -47 -189 -69 -17 -15 -54
-33 -81 -40 -95 -25 -113 -32 -148 -60 -24 -19 -66 -36 -127 -51 -50 -13 -93
-29 -96 -36 -9 -23 -52 -44 -127 -63 -48 -12 -88 -30 -113 -49 -23 -19 -62
-37 -98 -45 -70 -17 -120 -38 -156 -68 -15 -12 -62 -30 -104 -40 -50 -11 -88
-27 -104 -42 -36 -34 -57 -43 -130 -58 -44 -8 -74 -21 -96 -41 -34 -29 -83
-50 -147 -62 -20 -4 -59 -22 -86 -40 -54 -37 -108 -56 -163 -56 -51 0 -133 26
-154 50 -18 20 -65 39 -148 61 -27 7 -66 27 -87 44 -27 23 -57 36 -102 45 -72
14 -93 23 -128 55 -15 14 -58 32 -105 44 -46 12 -97 33 -122 50 -24 17 -81 41
-128 55 -56 16 -96 33 -119 54 -21 18 -51 33 -78 37 -66 12 -120 33 -149 61
-17 16 -52 31 -102 43 -42 10 -88 27 -103 37 -64 46 -82 54 -134 65 -62 13
-105 32 -136 61 -12 11 -56 28 -98 38 -72 18 -126 44 -126 60 0 10 -38 24
-123 46 -39 10 -84 30 -104 46 -20 15 -54 33 -77 39 -102 28 -135 41 -155 63
-21 22 -37 28 -149 56 -23 6 -58 24 -77 41 -25 22 -57 36 -117 50 -56 13 -95
29 -119 49 -22 18 -70 38 -122 53 -59 17 -98 34 -121 55 -20 17 -53 34 -73 37
-81 14 -115 27 -148 56 -19 17 -54 35 -78 41 -91 20 -116 29 -151 57 -20 16
-65 37 -103 47 -78 20 -117 37 -155 69 -15 13 -59 30 -101 39 -53 12 -84 25
-108 47 -18 16 -51 34 -73 39 -92 22 -145 41 -157 56 -18 22 -56 40 -119 54
-63 14 -95 29 -129 59 -23 20 -44 28 -139 51 -23 6 -58 24 -77 41 -25 22 -57
36 -119 50 -60 15 -93 28 -116 49 -22 19 -59 36 -117 51 -52 14 -98 33 -120
51 -34 27 -54 34 -151 58 -23 6 -58 25 -77 41 -19 17 -54 35 -78 41 -91 20
-116 29 -151 57 -22 18 -67 37 -118 51 -50 13 -97 33 -118 49 -35 28 -65 40
-153 62 -27 7 -66 27 -87 44 -27 23 -57 36 -102 45 -72 14 -93 23 -128 55 -15
14 -58 32 -104 44 -49 12 -98 33 -130 55 -33 22 -76 41 -122 51 -50 11 -82 25
-105 46 -18 16 -51 34 -73 39 -112 28 -132 36 -160 61 -20 17 -62 35 -115 50
-49 13 -97 34 -118 51 -34 27 -54 34 -151 58 -23 6 -57 24 -75 39 -30 27 -53
36 -155 61 -23 6 -57 24 -75 40 -23 19 -59 35 -116 50 -52 13 -101 34 -133 55
-27 19 -66 37 -86 41 -64 12 -113 33 -147 62 -22 20 -52 33 -96 41 -73 15 -94
24 -130 58 -16 15 -54 31 -104 42 -48 12 -94 31 -122 50 -24 17 -78 41 -121
52 -47 13 -92 33 -115 51 -25 19 -66 37 -113 49 -76 19 -118 40 -128 64 -2 7
-40 21 -83 31 -80 17 -104 27 -161 69 -18 13 -59 29 -90 36 -64 13 -109 33
-135 60 -16 17 -39 26 -135 49 -23 6 -58 24 -77 41 -25 22 -57 36 -119 51 -58
13 -97 29 -122 49 -20 16 -55 34 -78 40 -102 28 -135 41 -155 63 -21 22 -37
28 -148 56 -23 6 -60 26 -83 45 -23 19 -50 35 -59 35 -37 0 -113 33 -128 56
-14 22 -14 26 1 49 9 14 34 37 56 51 22 15 40 30 40 35 0 14 61 41 135 60 40
10 92 32 121 51 33 23 77 40 129 51 56 13 87 26 111 47 32 28 67 41 145 54 20
4 52 17 70 30 42 30 40 29 66 11z"/>
<path d="M24691 32348 c-18 -5 -45 -18 -60 -28 -14 -11 -64 -29 -111 -40 -58
-15 -94 -30 -117 -50 -18 -16 -52 -34 -75 -40 -97 -24 -117 -31 -151 -58 -22
-18 -68 -37 -121 -51 -54 -15 -99 -33 -122 -52 -35 -28 -60 -37 -153 -58 -24
-5 -55 -21 -70 -35 -27 -26 -86 -49 -153 -61 -21 -3 -50 -16 -65 -29 -39 -33
-78 -50 -156 -70 -38 -10 -83 -31 -103 -47 -35 -28 -60 -37 -150 -57 -23 -5
-59 -23 -81 -40 -26 -22 -61 -37 -111 -48 -41 -9 -85 -26 -100 -39 -41 -34
-69 -46 -149 -66 -47 -12 -87 -29 -111 -49 -24 -19 -65 -37 -115 -49 -49 -13
-91 -31 -115 -50 -24 -20 -62 -36 -106 -46 -71 -17 -102 -30 -146 -65 -14 -10
-60 -29 -103 -40 -49 -13 -93 -32 -115 -50 -25 -20 -64 -36 -120 -49 -58 -14
-93 -28 -116 -49 -18 -15 -55 -34 -82 -41 -95 -25 -113 -32 -148 -60 -21 -17
-67 -36 -123 -50 -56 -15 -97 -32 -114 -48 -25 -23 -131 -63 -169 -63 -10 0
-36 -15 -59 -34 -25 -21 -60 -38 -93 -46 -68 -15 -138 -40 -138 -49 0 -14 -75
-48 -145 -66 -41 -11 -83 -29 -101 -45 -28 -25 -48 -32 -160 -60 -22 -5 -52
-19 -65 -31 -34 -30 -69 -46 -114 -54 -48 -9 -115 -35 -115 -44 0 -14 -58 -40
-140 -61 -56 -15 -96 -33 -117 -51 -18 -16 -51 -33 -73 -39 -22 -5 -58 -15
-80 -20 -21 -6 -45 -16 -52 -23 -30 -30 -71 -50 -143 -68 -47 -11 -89 -29
-113 -48 -24 -19 -67 -37 -122 -51 -49 -13 -96 -32 -110 -45 -36 -32 -57 -41
-128 -55 -42 -9 -76 -23 -105 -46 -27 -21 -70 -40 -122 -54 -44 -12 -89 -30
-100 -40 -31 -27 -73 -46 -152 -65 -41 -10 -79 -25 -90 -37 -25 -28 -43 -36
-127 -57 -48 -12 -88 -30 -113 -49 -25 -21 -62 -37 -107 -47 -76 -18 -98 -27
-137 -59 -14 -12 -64 -32 -110 -45 -53 -15 -95 -33 -115 -50 -17 -15 -53 -33
-80 -40 -89 -24 -99 -28 -102 -43 -2 -9 12 -24 33 -36 19 -12 40 -33 46 -46 7
-14 31 -34 55 -45 24 -12 51 -32 60 -46 9 -15 35 -35 58 -47 23 -11 60 -38 83
-59 22 -20 59 -47 81 -58 22 -11 50 -34 61 -50 12 -16 38 -35 59 -41 20 -7 47
-19 60 -26 15 -10 28 -12 40 -5 9 5 55 18 101 30 58 15 95 31 118 51 18 16 52
34 75 40 24 6 57 15 75 20 17 4 49 22 70 39 26 20 62 36 110 47 49 11 86 26
115 49 28 22 71 41 125 55 53 14 89 30 104 46 22 23 130 64 169 64 10 0 36 15
58 33 22 19 62 39 89 46 76 20 133 42 133 52 0 12 71 45 141 63 31 9 72 28 92
44 22 18 67 37 120 51 57 15 95 32 116 50 29 26 123 61 163 61 9 0 35 16 58
35 23 19 60 39 83 45 97 24 116 31 152 60 21 16 56 35 79 41 83 21 112 33 146
60 23 18 66 36 123 50 56 14 91 28 97 39 11 21 90 55 148 65 25 4 57 19 75 35
43 37 62 46 130 60 31 6 70 22 85 34 39 33 77 50 157 71 42 11 83 29 102 46
29 25 119 59 157 59 8 0 31 14 50 30 35 31 90 53 158 65 20 3 55 21 77 39 21
18 61 39 88 45 94 25 112 32 149 62 20 16 55 34 78 40 77 19 136 41 136 49 0
16 53 41 124 59 48 12 88 30 113 49 23 19 64 38 103 48 74 19 96 28 127 56 12
11 61 31 109 45 57 16 99 34 120 53 21 18 61 35 119 50 53 15 90 30 95 40 11
21 90 55 148 65 26 4 57 19 81 39 22 18 61 39 88 45 94 25 112 32 147 60 20
16 70 38 118 51 51 15 95 34 115 51 32 27 57 37 152 58 24 5 55 20 70 34 35
33 56 43 124 57 39 8 70 22 93 42 23 21 62 38 121 55 51 14 100 36 122 53 21
16 69 37 116 50 51 14 92 33 112 51 18 15 52 33 75 39 24 6 57 15 75 20 17 4
49 22 70 39 23 18 60 35 93 42 30 7 63 20 74 29 17 17 17 18 -10 36 -15 11
-44 35 -64 56 -19 20 -54 44 -77 53 -23 9 -49 27 -57 40 -9 13 -45 38 -82 56
-36 18 -73 44 -82 57 -8 13 -38 34 -67 46 -28 13 -59 35 -68 50 -19 28 -25 29
-76 14z"/>
<path d="M26285 31671 c-35 -4 -62 -16 -90 -38 -25 -20 -65 -39 -105 -49 -74
-19 -96 -28 -127 -56 -12 -11 -61 -31 -109 -45 -57 -16 -99 -34 -120 -53 -21
-18 -61 -35 -119 -51 -48 -12 -89 -29 -92 -36 -7 -19 -70 -50 -118 -59 -53 -9
-115 -34 -115 -45 0 -12 -72 -45 -141 -63 -31 -9 -72 -28 -92 -44 -22 -18 -67
-37 -120 -51 -57 -15 -95 -32 -116 -50 -29 -26 -123 -61 -164 -61 -9 0 -31
-13 -49 -29 -44 -38 -63 -47 -131 -61 -39 -8 -70 -22 -93 -42 -23 -21 -62 -38
-121 -55 -51 -14 -100 -36 -122 -53 -21 -17 -69 -37 -116 -50 -44 -12 -91 -32
-105 -45 -36 -32 -57 -41 -129 -56 -42 -8 -74 -21 -95 -39 -42 -37 -62 -46
-129 -60 -31 -6 -70 -22 -85 -34 -39 -33 -77 -50 -157 -71 -42 -11 -83 -29
-102 -46 -29 -25 -119 -59 -156 -59 -8 0 -33 -15 -55 -33 -22 -19 -62 -39 -89
-46 -76 -20 -133 -42 -133 -52 0 -14 -71 -46 -132 -58 -31 -7 -72 -23 -90 -36
-47 -35 -83 -51 -165 -75 -40 -11 -73 -24 -73 -29 0 -17 -52 -42 -124 -60 -48
-12 -88 -30 -113 -49 -23 -19 -64 -38 -103 -48 -74 -19 -96 -28 -127 -56 -12
-11 -61 -31 -109 -45 -57 -16 -99 -34 -120 -53 -21 -18 -61 -35 -119 -51 -48
-12 -89 -29 -92 -36 -7 -19 -70 -50 -118 -59 -53 -9 -115 -34 -115 -45 0 -12
-72 -45 -141 -63 -31 -9 -72 -29 -92 -44 -21 -17 -70 -38 -119 -52 -51 -15
-95 -34 -115 -51 -32 -27 -57 -37 -152 -58 -24 -5 -55 -20 -70 -34 -35 -33
-56 -43 -124 -57 -39 -8 -70 -22 -93 -42 -23 -21 -62 -38 -121 -55 -51 -14
-100 -36 -122 -53 -21 -17 -69 -37 -116 -50 -44 -12 -91 -32 -105 -45 -36 -32
-57 -41 -129 -56 -42 -8 -74 -21 -95 -39 -42 -37 -62 -46 -128 -59 -36 -8 -72
-24 -100 -46 -29 -22 -71 -41 -126 -55 -46 -13 -85 -28 -87 -34 -13 -42 -14
-97 -3 -101 96 -33 135 -52 163 -81 19 -19 42 -34 52 -34 29 -1 106 -39 138
-69 17 -16 52 -36 78 -44 26 -9 65 -31 87 -50 22 -19 58 -39 80 -46 22 -6 55
-25 73 -40 42 -37 118 -49 144 -23 35 34 51 42 127 61 51 13 87 29 109 48 19
16 56 35 83 42 71 18 134 42 134 50 0 13 62 43 131 62 40 11 87 32 107 49 23
17 68 37 117 51 51 14 92 32 112 50 18 15 51 33 73 39 22 5 57 14 78 20 21 5
49 21 62 35 14 15 48 32 80 41 98 26 124 37 160 65 20 15 69 36 114 49 52 13
91 31 113 50 18 16 51 34 73 40 22 5 58 15 80 20 22 6 48 19 57 28 35 34 51
42 127 61 53 13 87 29 111 50 19 16 54 35 77 41 78 19 113 33 148 61 20 15 69
36 114 49 52 13 91 31 113 50 31 28 57 38 152 59 24 5 55 21 70 35 27 26 80
48 142 60 20 3 53 19 73 35 39 31 64 42 147 65 31 9 72 29 92 44 21 17 70 38
119 52 51 14 95 34 115 51 29 25 119 59 156 59 8 0 33 15 55 33 22 19 62 39
89 46 99 25 123 35 144 57 20 22 54 35 155 63 23 6 58 24 79 41 21 16 56 35
79 41 77 19 136 41 136 49 0 16 53 42 126 60 51 13 87 30 110 49 18 17 53 35
76 41 82 19 113 32 140 57 16 15 60 34 113 49 54 15 102 36 124 54 22 17 68
38 116 51 51 14 92 32 112 50 18 15 51 33 73 39 22 5 57 14 78 20 21 5 49 21
62 35 13 14 49 32 79 41 90 26 141 45 141 53 0 13 62 43 131 62 40 11 87 32
107 49 23 18 68 37 117 50 45 12 91 32 105 45 36 32 57 41 128 55 46 9 75 22
104 46 21 19 58 38 81 44 77 19 112 33 147 61 20 15 69 36 114 49 52 13 91 31
113 50 18 16 52 34 75 40 137 36 128 31 151 89 20 53 14 63 -49 87 -24 9 -54
31 -68 48 -14 19 -43 38 -74 49 -28 9 -64 30 -80 46 -16 16 -53 41 -82 55 -29
14 -59 35 -67 46 -8 11 -48 35 -89 54 -41 19 -77 42 -80 51 -6 13 -57 48 -66
44 -2 -1 -26 -5 -53 -8z"/>
<path d="M27934 30891 c-90 -19 -144 -39 -144 -52 0 -14 -71 -46 -132 -58 -31
-7 -72 -23 -90 -36 -48 -36 -84 -52 -165 -75 -40 -12 -73 -25 -73 -29 0 -17
-52 -42 -124 -60 -48 -12 -88 -30 -113 -50 -26 -20 -61 -36 -110 -47 -49 -11
-86 -26 -115 -49 -29 -22 -71 -41 -128 -56 -56 -14 -96 -32 -117 -50 -32 -27
-57 -37 -152 -58 -24 -5 -55 -20 -70 -34 -35 -33 -56 -43 -123 -56 -36 -8 -72
-24 -100 -46 -29 -22 -71 -41 -126 -55 -56 -15 -94 -32 -114 -50 -21 -20 -57
-35 -116 -50 -60 -15 -96 -30 -119 -50 -18 -16 -52 -34 -75 -40 -97 -24 -116
-31 -140 -53 -28 -26 -56 -38 -140 -61 -31 -9 -71 -28 -88 -42 -18 -16 -70
-38 -126 -54 -53 -16 -101 -34 -107 -42 -24 -28 -45 -38 -120 -57 -49 -12 -89
-29 -114 -50 -26 -21 -61 -36 -111 -47 -49 -11 -86 -27 -115 -49 -28 -21 -72
-41 -124 -55 -53 -14 -89 -30 -104 -46 -22 -23 -130 -64 -170 -64 -10 0 -34
-14 -53 -30 -35 -31 -90 -53 -157 -64 -20 -4 -56 -22 -80 -40 -30 -23 -71 -41
-127 -56 -55 -15 -94 -32 -114 -50 -19 -18 -58 -35 -111 -49 -49 -14 -92 -32
-107 -46 -28 -27 -83 -49 -148 -60 -25 -4 -58 -20 -81 -39 -22 -18 -61 -39
-88 -45 -94 -25 -114 -33 -144 -58 -17 -14 -69 -37 -122 -52 -57 -17 -103 -37
-120 -53 -25 -23 -120 -58 -159 -58 -9 0 -35 -16 -58 -35 -23 -19 -60 -39 -83
-45 -97 -24 -116 -31 -152 -60 -21 -16 -39 -30 -42 -30 -2 0 -38 -9 -81 -21
-48 -12 -87 -30 -103 -45 -25 -24 -131 -64 -170 -64 -10 0 -34 -14 -53 -30
-35 -31 -90 -53 -157 -64 -20 -4 -56 -22 -80 -41 -28 -21 -69 -41 -109 -51
-69 -17 -99 -31 -141 -65 -14 -11 -61 -29 -104 -40 -51 -13 -90 -30 -110 -48
-29 -25 -49 -33 -160 -61 -42 -10 -135 -89 -135 -114 0 -16 28 -42 57 -50 12
-4 33 -20 46 -35 13 -16 35 -32 48 -35 67 -20 130 -50 143 -71 9 -14 39 -31
76 -44 34 -11 78 -35 99 -54 23 -21 64 -42 109 -57 l73 -23 87 18 c92 18 151
41 192 74 14 11 60 30 103 41 49 13 93 32 115 50 25 20 64 36 120 49 60 14 92
28 118 50 19 17 37 31 40 31 31 0 163 47 196 70 24 16 80 40 124 53 47 13 95
35 113 50 31 25 57 35 148 55 24 6 58 23 77 40 21 18 55 34 87 41 69 16 139
41 139 50 0 14 75 48 145 66 41 10 81 28 96 42 25 23 131 63 169 63 10 0 36
15 59 34 25 21 60 38 93 46 68 15 138 40 138 49 0 14 75 48 145 66 41 11 83
29 101 45 28 25 48 32 160 60 22 5 52 19 65 31 34 30 69 46 114 54 48 9 115
35 115 44 0 14 58 40 140 61 56 15 96 33 117 51 18 16 51 33 73 39 22 5 58 15
80 20 21 6 45 16 52 23 30 30 71 50 143 68 47 11 89 29 113 48 24 19 68 37
122 52 56 14 96 32 117 50 18 16 51 33 73 39 22 5 58 15 80 20 21 6 45 16 52
23 30 30 71 50 143 68 47 11 89 29 113 48 24 19 67 37 122 51 49 13 96 32 110
45 36 32 57 41 128 55 46 9 75 22 104 46 22 19 42 34 44 34 34 0 164 47 192
70 24 19 66 36 122 50 54 14 94 30 110 45 28 27 82 49 148 60 26 4 58 20 82
40 29 24 60 38 112 50 78 17 100 27 140 60 14 12 64 32 110 45 50 13 93 31
108 46 28 26 83 48 148 59 26 4 58 20 82 40 29 24 60 38 112 50 78 17 100 27
140 60 14 12 64 32 110 45 53 14 94 32 114 49 17 15 53 33 80 40 27 7 65 16
85 22 20 5 53 23 74 39 21 17 50 33 64 36 120 27 126 38 49 106 -35 30 -81 64
-103 76 -22 11 -50 34 -63 51 -12 17 -29 31 -38 31 -24 0 -75 29 -116 66 -21
19 -57 43 -81 54 -24 12 -50 31 -56 43 -12 23 -121 78 -151 76 -8 0 -52 -8
-96 -18z"/>
<path d="M29624 30239 c-26 -29 -48 -40 -126 -60 -43 -11 -80 -28 -101 -46
-19 -16 -56 -35 -83 -42 -71 -18 -134 -42 -134 -50 0 -13 -62 -43 -131 -62
-40 -11 -87 -32 -107 -49 -23 -18 -68 -37 -117 -50 -45 -12 -91 -32 -105 -45
-36 -32 -57 -41 -128 -55 -46 -9 -75 -22 -104 -46 -21 -19 -58 -38 -81 -44
-77 -19 -112 -33 -147 -61 -20 -15 -69 -36 -114 -49 -52 -13 -91 -31 -113 -50
-18 -16 -50 -34 -70 -39 -21 -5 -57 -15 -80 -21 -24 -6 -51 -19 -60 -28 -35
-34 -51 -42 -127 -61 -53 -13 -87 -29 -111 -50 -19 -16 -54 -35 -77 -41 -78
-19 -113 -33 -148 -61 -20 -15 -69 -36 -114 -49 -52 -13 -91 -31 -113 -50 -18
-16 -52 -34 -75 -40 -24 -6 -59 -15 -79 -21 -19 -5 -50 -22 -68 -38 -24 -22
-55 -35 -107 -47 -47 -10 -86 -26 -109 -44 -38 -30 -63 -41 -146 -64 -31 -9
-73 -29 -94 -46 -21 -16 -56 -35 -79 -41 -103 -27 -123 -34 -153 -60 -31 -27
-116 -59 -154 -59 -10 0 -34 -14 -53 -30 -35 -31 -84 -52 -147 -64 -20 -3 -53
-19 -73 -35 -39 -31 -64 -42 -147 -65 -31 -9 -73 -29 -94 -46 -21 -16 -56 -35
-79 -41 -103 -27 -123 -34 -153 -60 -31 -27 -116 -59 -154 -59 -9 0 -35 -15
-57 -33 -22 -19 -62 -39 -89 -46 -90 -22 -118 -34 -149 -61 -17 -14 -53 -32
-80 -39 -78 -21 -126 -41 -156 -66 -16 -14 -48 -29 -71 -35 -91 -24 -133 -41
-144 -60 -12 -18 -124 -60 -163 -60 -10 0 -37 -16 -60 -35 -23 -19 -60 -39
-83 -45 -79 -19 -112 -33 -143 -60 -17 -14 -53 -32 -80 -39 -78 -21 -126 -41
-156 -66 -16 -14 -48 -29 -71 -35 -91 -24 -133 -41 -144 -60 -12 -18 -124 -60
-163 -60 -10 0 -37 -16 -60 -35 -23 -19 -60 -39 -83 -45 -90 -22 -117 -31
-129 -43 -29 -29 -69 -48 -138 -68 -43 -12 -87 -32 -108 -49 -23 -19 -65 -37
-120 -51 -63 -17 -88 -28 -100 -47 -8 -13 -33 -35 -55 -49 -25 -15 -36 -28
-30 -34 5 -5 44 -19 86 -30 49 -14 86 -30 102 -47 16 -16 56 -34 107 -49 46
-13 93 -31 107 -41 59 -43 78 -52 140 -67 43 -10 82 -28 109 -49 31 -25 65
-39 134 -55 51 -12 102 -22 113 -22 44 -1 213 57 243 83 29 24 119 58 156 58
8 0 31 14 50 30 35 31 84 52 148 64 21 4 50 17 65 30 37 31 80 52 123 60 56
11 93 27 121 53 16 15 65 36 120 52 59 17 104 37 122 53 25 23 121 58 160 58
9 0 31 13 49 29 44 38 63 47 130 61 39 7 71 22 97 44 22 18 61 39 88 45 94 25
112 32 149 62 20 16 54 33 75 39 22 5 58 15 81 21 24 6 57 24 75 40 18 15 50
33 70 38 21 5 56 14 79 20 22 6 51 22 64 36 21 23 54 36 156 64 23 6 58 24 79
41 21 16 56 35 79 41 83 21 112 33 146 60 20 15 64 35 100 44 79 19 120 35
120 45 0 16 54 42 127 60 47 12 86 28 102 43 35 33 56 43 123 56 35 8 72 24
100 45 28 22 71 42 122 55 52 14 91 32 113 51 31 28 57 38 152 59 24 5 55 21
70 35 27 26 80 48 142 60 20 3 53 19 73 35 39 31 64 42 147 65 31 9 72 29 92
44 21 17 70 38 119 52 51 15 95 34 115 51 32 27 57 37 152 58 24 5 55 20 70
34 35 33 56 43 123 57 39 7 71 22 97 44 22 18 61 39 88 45 94 25 112 32 149
62 20 16 55 34 78 40 77 19 136 41 136 49 0 16 53 41 125 59 50 13 86 29 108
48 19 16 56 35 83 42 95 25 113 32 150 62 20 16 55 34 78 40 83 21 112 33 146
60 20 15 69 37 115 49 44 12 91 32 105 45 36 32 57 41 129 56 42 8 74 21 95
39 42 37 62 46 128 59 36 8 72 24 100 46 28 22 71 41 126 55 45 12 82 23 82
25 0 2 -15 29 -32 60 -29 50 -40 60 -83 76 -27 10 -63 30 -78 45 -15 14 -56
39 -91 54 -35 16 -70 40 -79 53 -9 14 -40 33 -78 46 -34 13 -76 38 -95 56 -18
18 -50 39 -71 45 -21 7 -51 22 -68 35 -30 21 -87 45 -110 45 -7 0 -20 -9 -31
-21z"/>
<path d="M31415 29467 c-16 -7 -48 -25 -71 -40 -23 -15 -77 -37 -120 -49 -53
-14 -88 -31 -106 -48 -25 -25 -43 -32 -154 -60 -22 -5 -51 -21 -64 -35 -21
-23 -54 -36 -156 -64 -23 -6 -58 -24 -78 -40 -22 -18 -67 -37 -118 -51 -52
-14 -93 -31 -109 -47 -25 -23 -131 -63 -169 -63 -10 0 -37 -16 -60 -35 -23
-19 -60 -39 -83 -45 -95 -23 -115 -31 -143 -55 -32 -27 -49 -35 -150 -64 -39
-11 -77 -28 -84 -37 -19 -22 -55 -38 -135 -59 -43 -11 -83 -29 -102 -46 -18
-16 -52 -33 -75 -39 -24 -6 -57 -15 -75 -20 -17 -4 -49 -22 -70 -38 -24 -20
-67 -39 -116 -52 -48 -12 -93 -32 -115 -50 -23 -18 -68 -37 -117 -50 -50 -13
-90 -31 -106 -46 -25 -24 -131 -64 -169 -64 -10 0 -36 -15 -58 -33 -22 -19
-62 -40 -89 -46 -94 -25 -112 -32 -149 -62 -20 -16 -55 -34 -78 -40 -86 -22
-134 -40 -151 -58 -20 -23 -49 -35 -135 -56 -40 -10 -77 -28 -97 -45 -18 -16
-51 -34 -73 -40 -22 -5 -58 -15 -80 -20 -22 -6 -48 -19 -57 -29 -24 -24 -70
-47 -113 -55 -54 -11 -92 -27 -130 -57 -20 -16 -69 -36 -117 -49 -53 -14 -92
-31 -113 -50 -28 -25 -122 -60 -162 -60 -9 0 -35 -16 -58 -35 -23 -19 -44 -35
-46 -35 -2 0 -39 -9 -81 -21 -49 -13 -88 -30 -110 -49 -18 -16 -52 -34 -75
-40 -98 -24 -117 -31 -153 -60 -21 -16 -54 -34 -74 -39 -20 -5 -56 -15 -81
-21 -24 -7 -59 -25 -77 -41 -18 -15 -51 -33 -73 -39 -22 -5 -58 -15 -80 -20
-22 -6 -48 -19 -57 -29 -24 -24 -70 -47 -113 -55 -54 -11 -92 -27 -130 -57
-20 -16 -69 -36 -117 -49 -53 -14 -92 -31 -113 -50 -28 -25 -122 -60 -162 -60
-8 0 -35 -15 -59 -34 -29 -23 -71 -42 -123 -56 -51 -13 -91 -31 -111 -49 -17
-15 -54 -33 -81 -40 -95 -25 -113 -32 -148 -60 -22 -18 -69 -38 -118 -51 -54
-15 -94 -32 -115 -51 -18 -15 -50 -33 -70 -38 -21 -5 -57 -14 -79 -20 -23 -6
-58 -25 -79 -41 -21 -17 -50 -33 -64 -36 -66 -14 -131 -35 -131 -42 0 -4 21
-30 48 -58 36 -39 62 -57 110 -74 37 -14 72 -34 85 -50 14 -18 46 -35 89 -49
45 -15 76 -32 92 -52 17 -19 46 -36 87 -48 38 -12 75 -32 95 -52 26 -25 46
-34 91 -40 61 -8 107 6 163 50 14 11 60 30 103 41 48 13 93 32 115 50 33 25
86 45 172 64 14 3 40 18 58 34 31 28 68 42 150 57 18 4 45 17 60 29 39 33 66
46 146 68 39 10 80 28 91 38 30 27 73 45 149 64 45 11 81 27 103 46 18 16 52
34 75 40 98 24 117 31 153 60 21 16 56 35 79 40 95 24 115 31 150 59 22 18 67
37 118 51 50 13 93 31 108 46 28 26 83 48 148 59 27 4 57 19 78 37 23 21 63
39 121 55 51 14 100 36 122 53 22 18 68 37 121 51 56 14 96 32 117 50 18 16
52 33 75 39 24 6 59 16 79 21 20 5 53 23 74 39 21 16 56 35 79 40 94 23 116
32 143 54 40 33 59 41 140 60 47 12 79 26 94 42 22 23 130 64 169 64 10 0 37
16 60 35 23 19 44 35 46 35 34 0 164 47 192 70 23 17 67 37 114 49 43 12 79
21 81 21 2 0 18 13 36 29 21 19 56 35 99 45 82 20 122 36 122 47 0 14 72 46
133 59 31 6 70 22 85 34 38 33 77 50 155 70 38 10 83 31 103 47 35 28 60 37
151 57 24 6 59 24 78 41 19 16 54 35 77 41 112 28 128 34 149 56 20 22 53 35
155 63 23 6 57 24 77 39 20 16 65 36 104 46 85 22 123 36 123 46 0 16 53 41
124 59 47 12 88 30 113 49 23 18 68 38 115 51 42 11 96 34 120 51 26 18 77 39
123 51 53 14 90 30 112 49 18 16 52 34 75 40 24 6 61 16 83 22 22 5 54 23 72
39 18 15 52 33 75 39 98 24 117 31 153 60 21 16 55 34 76 40 22 5 58 15 81 21
24 6 58 24 76 40 18 16 39 29 46 29 17 0 66 38 66 51 0 5 -21 19 -47 30 -27
11 -61 33 -78 48 -16 16 -57 39 -89 52 -33 14 -68 36 -79 51 -12 16 -41 34
-70 44 -27 9 -67 32 -87 50 -21 19 -62 45 -93 59 -31 13 -63 36 -72 49 -9 14
-24 27 -33 30 -45 12 -100 14 -127 3z"/>
</g>
</svg>
